<svg width="146" height="201" viewBox="0 0 146 201" fill="none" xmlns="http://www.w3.org/2000/svg">
<path d="M36.1333 4.8665C35.0666 10.1998 32.2666 12.9998 25.9999 14.5998L21.3333 15.9332L27.4666 18.5998C31.5999 20.4665 33.9999 22.4665 34.9333 25.1332C35.7333 27.2665 36.7999 30.1998 37.3333 31.6665C38.2666 33.9332 38.5333 33.5332 39.5999 29.3998C41.0666 23.9332 47.3333 17.6665 51.4666 17.6665C55.4666 17.6665 54.3999 15.3998 49.9999 14.5998C44.9333 13.5332 40.7999 9.39983 39.7333 4.33316C38.7999 -1.00017 37.1999 -0.733505 36.1333 4.8665Z" fill="#0E2C35"/>
<path d="M15.9999 40.9999C6.13323 44.4666 -0.666774 56.4666 1.33323 66.8666C2.39989 72.3333 10.3999 80.9999 15.7332 82.3332C21.4666 83.7999 27.8666 81.9332 31.9999 77.7999C39.5999 69.7999 35.3332 56.3333 25.1999 56.3333C19.9999 56.3333 17.5999 58.8666 18.2666 63.9332C18.6666 67.1332 19.1999 67.6666 23.0666 67.6666C28.1332 67.6666 28.6666 70.0666 23.9999 73.1332C15.5999 78.5999 6.66656 66.3333 11.5999 55.6666C14.6666 48.9999 17.9999 48.3332 49.9999 48.3332H79.3332V55.6666V62.9999H60.6666H41.9999V67.6666V72.3333H60.6666H79.3332L79.5999 125.267C79.7332 154.467 79.9999 179.533 80.1332 181C80.2666 182.467 80.3999 187.4 80.5332 192.067L80.6666 200.333L89.3332 193.533L97.9999 186.733V138.333C97.9999 86.5999 98.1332 85.5332 104.667 87.6666C107.333 88.4666 107.333 89.2666 107.333 134.467C107.333 159.667 107.733 180.333 108.133 180.333C108.533 180.333 111.467 178.467 114.8 176.333L120.667 172.2V126.867V81.5332L124.667 79.2666C127.467 77.7999 128.667 76.0666 128.4 74.3332C128 71.7999 126.8 71.6666 104.4 71.2666C81.7332 70.9999 80.6666 70.8666 80.6666 68.3333C80.6666 65.7999 81.5999 65.6666 100.8 65.6666C111.733 65.6666 123.467 64.9999 126.533 64.1999C134.4 62.1999 141.333 56.1999 144 48.9999C148.133 38.3332 152.4 38.9999 83.0666 38.9999C33.4666 39.1332 20.2666 39.5332 15.9999 40.9999Z" fill="#0E2C35"/>
<path d="M38.2666 85.1332C35.3333 87.1332 35.3333 87.5332 35.3333 122.2V157.267L42.1333 161.533C45.8666 163.8 49.0666 165.667 49.4666 165.667C49.7333 165.667 49.9999 148.2 49.9999 127C49.9999 90.0665 49.8666 88.1998 47.3333 85.6665C44.1333 82.4665 42.2666 82.3332 38.2666 85.1332Z" fill="#0E2C35"/>
<path d="M59.3332 85.6666C56.7998 88.2 56.6665 90.0666 56.6665 129.667V170.867L63.4665 177.267C67.1998 180.733 70.7998 183.933 71.4665 184.067C72.1332 184.333 72.6665 164.733 72.6665 137.267C72.6665 91.5333 72.5332 89.9333 69.8665 86.4666C66.6665 82.3333 62.9332 82.0666 59.3332 85.6666Z" fill="#0E2C35"/>
</svg>
