<svg width="1082" height="756" viewBox="0 0 1082 756" fill="none" xmlns="http://www.w3.org/2000/svg">
<path d="M452.281 10.3124C449.765 22.8919 443.162 29.4962 428.384 33.2701L417.379 36.415L431.843 42.7048C441.59 47.1076 447.25 51.825 449.451 58.1147C451.338 63.1466 453.853 70.0653 455.111 73.5247C457.312 78.871 457.941 77.9276 460.456 68.1784C463.915 55.2843 478.693 40.5033 488.441 40.5033C497.874 40.5033 495.358 35.157 484.982 33.2701C473.033 30.7542 463.286 21.005 460.771 9.0544C458.57 -3.52518 454.796 -2.89619 452.281 10.3124Z" fill="#B99E5A"/>
<path d="M404.802 95.5387C381.534 103.715 365.498 132.02 370.214 156.55C372.73 169.444 391.596 189.886 404.173 193.03C417.693 196.49 432.786 192.087 442.534 182.338C460.456 163.468 450.394 131.705 426.497 131.705C414.235 131.705 408.575 137.68 410.147 149.631C411.09 157.179 412.348 158.437 421.467 158.437C433.415 158.437 434.673 164.097 423.668 171.331C403.858 184.225 382.791 155.292 394.425 130.133C401.657 114.408 409.518 112.836 484.982 112.836H554.157V130.133V147.429H510.136H466.116V158.437V169.444H510.136H554.157L554.786 294.296C555.1 363.169 555.729 422.293 556.044 425.753C556.358 429.212 556.672 440.848 556.987 451.855L557.301 471.354L577.739 455.315L598.177 439.276V325.116C598.177 203.094 598.492 200.578 613.899 205.61C620.188 207.497 620.188 209.384 620.188 315.996C620.188 375.434 621.131 424.18 622.074 424.18C623.018 424.18 629.935 419.777 637.796 414.745L651.631 404.996V298.07V191.143L661.064 185.797C667.667 182.338 670.497 178.249 669.868 174.161C668.925 168.186 666.095 167.871 613.27 166.928C559.817 166.299 557.301 165.984 557.301 160.009C557.301 154.034 559.502 153.719 604.781 153.719C630.564 153.719 658.234 152.147 665.466 150.26C684.017 145.543 700.368 131.391 706.656 114.408C716.404 89.2489 726.466 90.8214 562.961 90.8214C445.992 91.1359 414.863 92.0793 404.802 95.5387Z" fill="#B99E5A"/>
<path d="M457.312 199.635C450.395 204.352 450.395 205.296 450.395 287.063V369.774L466.431 379.837C475.235 385.184 482.781 389.586 483.724 389.586C484.353 389.586 484.982 348.388 484.982 298.385C484.982 211.271 484.668 206.868 478.693 200.893C471.147 193.345 466.745 193.031 457.312 199.635Z" fill="#B99E5A"/>
<path d="M506.992 200.893C501.018 206.868 500.704 211.271 500.704 304.675V401.852L516.74 416.947C525.544 425.124 534.033 432.672 535.606 432.986C537.178 433.615 538.435 387.385 538.435 322.601C538.435 214.731 538.121 210.957 531.832 202.78C524.286 193.031 515.482 192.402 506.992 200.893Z" fill="#B99E5A"/>
<path d="M117.715 600.716L137.159 557.64C137.982 555.814 138.394 554.4 138.394 553.397C138.394 551.857 137.213 550.855 134.849 550.389V548.67H159.932V550.389C158.357 550.604 157.265 551.052 156.656 551.732C156.047 552.412 154.991 554.382 153.487 557.64L128.082 612.479C127.007 614.806 126.47 616.328 126.47 617.044C126.47 618.871 127.598 619.945 129.854 620.267V621.986H104.61V620.267C106.866 619.945 107.994 618.853 107.994 616.991C107.994 616.31 107.457 614.806 106.382 612.479L80.9772 557.64C79.4733 554.382 78.417 552.412 77.8082 551.732C77.1995 551.052 76.1074 550.604 74.5319 550.389V548.67H100.582V550.389C98.2184 550.855 97.0367 551.857 97.0367 553.397C97.0367 554.4 97.4485 555.814 98.2721 557.64L117.715 600.716ZM206.876 591.317V616.346C206.876 617.456 207.126 618.298 207.628 618.871C208.165 619.444 209.078 619.909 210.367 620.267V621.986H187.325V620.267C188.614 619.909 189.527 619.444 190.064 618.871C190.601 618.298 190.87 617.456 190.87 616.346V591.317L167.183 557.962C165.142 555.098 163.531 553.182 162.349 552.215C161.203 551.213 159.825 550.604 158.214 550.389V548.67H187.164V550.389C184.765 550.783 183.565 551.893 183.565 553.719C183.565 554.364 184.299 555.778 185.767 557.962L198.98 577.621L212.569 557.962C214.037 555.85 214.771 554.417 214.771 553.666C214.771 552.842 214.449 552.144 213.804 551.571C213.16 550.962 212.283 550.568 211.172 550.389V548.67H239.532V550.389C237.921 550.604 236.524 551.213 235.342 552.215C234.197 553.182 232.603 555.098 230.562 557.962L206.876 591.317ZM280.889 600.716L300.333 557.64C301.156 555.814 301.568 554.4 301.568 553.397C301.568 551.857 300.386 550.855 298.023 550.389V548.67H323.106V550.389C321.531 550.604 320.438 551.052 319.83 551.732C319.221 552.412 318.165 554.382 316.661 557.64L291.255 612.479C290.181 614.806 289.644 616.328 289.644 617.044C289.644 618.871 290.772 619.945 293.028 620.267V621.986H267.784V620.267C270.04 619.945 271.168 618.853 271.168 616.991C271.168 616.31 270.63 614.806 269.556 612.479L244.151 557.64C242.647 554.382 241.591 552.412 240.982 551.732C240.373 551.052 239.281 550.604 237.706 550.389V548.67H263.755V550.389C261.392 550.855 260.211 551.857 260.211 553.397C260.211 554.4 260.622 555.814 261.446 557.64L280.889 600.716ZM332.881 616.346V554.256C332.881 553.182 332.631 552.359 332.13 551.786C331.628 551.213 330.733 550.747 329.444 550.389V548.67H352.325V550.389C351.036 550.711 350.141 551.177 349.639 551.786C349.138 552.359 348.887 553.182 348.887 554.256V616.346C348.887 617.456 349.138 618.316 349.639 618.924C350.176 619.497 351.072 619.945 352.325 620.267V621.986H329.444V620.267C330.733 619.909 331.628 619.444 332.13 618.871C332.631 618.298 332.881 617.456 332.881 616.346ZM419.249 603.294H385.948L381.006 613.607C380.326 615.039 379.986 616.167 379.986 616.991C379.986 618.566 381.186 619.658 383.585 620.267V621.986H359.307V620.267C360.74 619.981 361.832 619.479 362.584 618.763C363.336 618.047 364.195 616.651 365.162 614.574L392.125 558.231C392.984 556.441 393.414 555.008 393.414 553.934C393.414 552.287 392.375 551.105 390.298 550.389V548.67H416.295V550.389C414.182 550.998 413.126 552.054 413.126 553.558C413.126 554.597 413.466 555.778 414.146 557.103L442.076 613.607C443.257 616.006 444.296 617.653 445.191 618.548C446.086 619.408 447.286 619.981 448.79 620.267V621.986H421.827V620.267C424.19 619.873 425.372 618.763 425.372 616.937C425.372 616.185 425.014 615.075 424.297 613.607L419.249 603.294ZM414.63 593.25L402.759 567.147L390.728 593.25H414.63ZM473.121 571.766V616.346C473.121 617.456 473.371 618.298 473.873 618.871C474.374 619.444 475.269 619.909 476.558 620.267V621.986H455.02V620.267C456.309 619.909 457.204 619.444 457.706 618.871C458.207 618.298 458.458 617.456 458.458 616.346V554.256C458.458 553.182 458.207 552.359 457.706 551.786C457.204 551.213 456.309 550.747 455.02 550.389V548.67H479.942V550.389C478.402 550.783 477.632 551.607 477.632 552.86C477.632 553.719 478.134 554.668 479.136 555.707L519.581 597.762V554.256C519.581 553.182 519.33 552.359 518.829 551.786C518.327 551.213 517.432 550.747 516.143 550.389V548.67H537.681V550.389C536.392 550.747 535.497 551.213 534.996 551.786C534.494 552.359 534.244 553.182 534.244 554.256V616.346C534.244 617.456 534.494 618.298 534.996 618.871C535.497 619.444 536.392 619.909 537.681 620.267V621.986H514.586V620.267C516.089 619.945 516.841 619.175 516.841 617.958C516.841 617.241 515.964 615.988 514.21 614.198L473.121 571.766ZM632.159 603.294H598.858L593.917 613.607C593.236 615.039 592.896 616.167 592.896 616.991C592.896 618.566 594.096 619.658 596.495 620.267V621.986H572.217V620.267C573.65 619.981 574.742 619.479 575.494 618.763C576.246 618.047 577.105 616.651 578.072 614.574L605.035 558.231C605.894 556.441 606.324 555.008 606.324 553.934C606.324 552.287 605.285 551.105 603.209 550.389V548.67H629.205V550.389C627.092 550.998 626.036 552.054 626.036 553.558C626.036 554.597 626.376 555.778 627.056 557.103L654.986 613.607C656.168 616.006 657.206 617.653 658.101 618.548C658.996 619.408 660.196 619.981 661.7 620.267V621.986H634.737V620.267C637.1 619.873 638.282 618.763 638.282 616.937C638.282 616.185 637.924 615.075 637.208 613.607L632.159 603.294ZM627.54 593.25L615.67 567.147L603.638 593.25H627.54ZM694.678 600.716L714.122 557.64C714.945 555.814 715.357 554.4 715.357 553.397C715.357 551.857 714.175 550.855 711.812 550.389V548.67H736.895V550.389C735.32 550.604 734.227 551.052 733.619 551.732C733.01 552.412 731.954 554.382 730.45 557.64L705.045 612.479C703.97 614.806 703.433 616.328 703.433 617.044C703.433 618.871 704.561 619.945 706.817 620.267V621.986H681.573V620.267C683.829 619.945 684.957 618.853 684.957 616.991C684.957 616.31 684.42 614.806 683.345 612.479L657.94 557.64C656.436 554.382 655.38 552.412 654.771 551.732C654.162 551.052 653.07 550.604 651.495 550.389V548.67H677.545V550.389C675.181 550.855 674 551.857 674 553.397C674 554.4 674.411 555.814 675.235 557.64L694.678 600.716ZM762.676 589.813V609.901H809.835C810.909 609.901 811.732 609.65 812.305 609.149C812.878 608.648 813.344 607.752 813.702 606.463H815.421V625.423H813.702C813.344 624.134 812.878 623.239 812.305 622.738C811.732 622.236 810.909 621.986 809.835 621.986H743.233V620.267C744.522 619.909 745.417 619.444 745.919 618.871C746.42 618.298 746.671 617.456 746.671 616.346V554.31C746.671 553.2 746.42 552.359 745.919 551.786C745.417 551.213 744.522 550.747 743.233 550.389V548.67H808.546C809.62 548.67 810.443 548.42 811.016 547.918C811.589 547.381 812.055 546.468 812.413 545.179H814.131V564.139H812.413C812.055 562.886 811.589 562.009 811.016 561.507C810.443 561.006 809.62 560.755 808.546 560.755H762.676V578.158H792.432C793.506 578.158 794.33 577.907 794.903 577.406C795.476 576.904 795.941 576.009 796.299 574.72H798.018V593.25H796.299C795.941 591.997 795.476 591.12 794.903 590.619C794.33 590.082 793.506 589.813 792.432 589.813H762.676ZM844.908 571.766V616.346C844.908 617.456 845.158 618.298 845.66 618.871C846.161 619.444 847.056 619.909 848.345 620.267V621.986H826.807V620.267C828.096 619.909 828.991 619.444 829.493 618.871C829.994 618.298 830.245 617.456 830.245 616.346V554.256C830.245 553.182 829.994 552.359 829.493 551.786C828.991 551.213 828.096 550.747 826.807 550.389V548.67H851.729V550.389C850.189 550.783 849.42 551.607 849.42 552.86C849.42 553.719 849.921 554.668 850.923 555.707L891.368 597.762V554.256C891.368 553.182 891.117 552.359 890.616 551.786C890.115 551.213 889.219 550.747 887.93 550.389V548.67H909.468V550.389C908.179 550.747 907.284 551.213 906.783 551.786C906.282 552.359 906.031 553.182 906.031 554.256V616.346C906.031 617.456 906.282 618.298 906.783 618.871C907.284 619.444 908.179 619.909 909.468 620.267V621.986H886.373V620.267C887.877 619.945 888.629 619.175 888.629 617.958C888.629 617.241 887.751 615.988 885.997 614.198L844.908 571.766ZM977.628 603.294H944.327L939.385 613.607C938.705 615.039 938.365 616.167 938.365 616.991C938.365 618.566 939.564 619.658 941.964 620.267V621.986H917.686V620.267C919.118 619.981 920.211 619.479 920.963 618.763C921.714 618.047 922.574 616.651 923.541 614.574L950.504 558.231C951.363 556.441 951.793 555.008 951.793 553.934C951.793 552.287 950.754 551.105 948.677 550.389V548.67H974.673V550.389C972.561 550.998 971.505 552.054 971.505 553.558C971.505 554.597 971.845 555.778 972.525 557.103L1000.45 613.607C1001.64 616.006 1002.67 617.653 1003.57 618.548C1004.47 619.408 1005.66 619.981 1007.17 620.267V621.986H980.206V620.267C982.569 619.873 983.751 618.763 983.751 616.937C983.751 616.185 983.393 615.075 982.676 613.607L977.628 603.294ZM973.008 593.25L961.138 567.147L949.107 593.25H973.008Z" fill="#B99E5A"/>
<path d="M376.431 718.709H353.587L349.837 726.803C349.483 727.574 349.306 728.116 349.306 728.428C349.306 729.053 349.92 729.47 351.15 729.678V730.678H341.65V729.678C342.504 729.532 343.15 729.22 343.587 728.741C344.045 728.262 344.639 727.22 345.368 725.616L360.993 691.897C361.368 691.084 361.556 690.532 361.556 690.241C361.556 689.699 361.045 689.293 360.025 689.022V688.022H370.4V689.022C369.379 689.355 368.868 689.793 368.868 690.334C368.868 690.564 369.056 691.084 369.431 691.897L384.4 724.397C385.504 726.793 386.233 728.199 386.587 728.616C386.941 729.032 387.712 729.387 388.9 729.678V730.678H378.775V729.678C379.983 729.512 380.587 729.053 380.587 728.303C380.587 727.97 380.358 727.324 379.9 726.366L376.431 718.709ZM374.587 714.647L364.993 693.584L355.431 714.647H374.587ZM395.337 727.428V691.272C395.337 690.647 395.191 690.168 394.9 689.834C394.608 689.501 394.087 689.23 393.337 689.022V688.022H415.837C420.941 688.022 424.848 688.73 427.556 690.147C430.973 691.918 433.577 694.647 435.368 698.334C436.931 701.564 437.712 705.23 437.712 709.334C437.712 714.189 436.66 718.376 434.556 721.897C432.66 725.022 430.254 727.272 427.337 728.647C424.441 730.001 420.608 730.678 415.837 730.678H393.337V729.678C394.087 729.47 394.608 729.199 394.9 728.866C395.191 728.532 395.337 728.053 395.337 727.428ZM400.243 726.616H415.65C420.17 726.616 423.525 725.918 425.712 724.522C428.295 722.855 430.191 720.303 431.4 716.866C432.191 714.574 432.587 712.064 432.587 709.334C432.587 704.376 431.327 700.272 428.806 697.022C427.41 695.23 425.712 693.959 423.712 693.209C421.712 692.459 419.025 692.084 415.65 692.084H400.243V726.616ZM462.493 725.116L476.306 693.522C476.889 692.23 477.181 691.272 477.181 690.647C477.181 689.855 476.577 689.314 475.368 689.022V688.022H485.025V689.022C484.045 689.314 483.368 689.699 482.993 690.178C482.639 690.657 481.962 692.043 480.962 694.334L467.212 725.334C466.691 726.564 466.431 727.449 466.431 727.991C466.431 728.866 467.025 729.428 468.212 729.678V730.678H456.337V729.678C457.525 729.428 458.118 728.845 458.118 727.928C458.118 727.428 457.848 726.564 457.306 725.334L443.306 693.397C442.535 691.668 441.962 690.574 441.587 690.116C441.212 689.657 440.556 689.293 439.618 689.022V688.022H449.806V689.022C448.577 689.314 447.962 689.855 447.962 690.647C447.962 691.355 448.233 692.314 448.775 693.522L462.493 725.116ZM512.087 687.272C519.608 687.272 525.67 689.241 530.275 693.178C532.858 695.366 534.795 698.043 536.087 701.209C537.15 703.814 537.681 706.616 537.681 709.616C537.681 713.678 536.525 717.48 534.212 721.022C531.67 724.939 528.139 727.762 523.618 729.491C520.243 730.782 516.42 731.428 512.15 731.428C504.67 731.428 498.639 729.459 494.056 725.522C491.493 723.314 489.556 720.637 488.243 717.491C487.181 714.907 486.65 712.189 486.65 709.334C486.65 705.105 487.795 701.209 490.087 697.647C492.587 693.793 496.129 690.98 500.712 689.209C503.92 687.98 507.712 687.334 512.087 687.272ZM512.087 691.553C505.691 691.553 500.629 693.345 496.9 696.928C493.483 700.22 491.775 704.355 491.775 709.334C491.775 714.334 493.483 718.48 496.9 721.772C500.608 725.355 505.691 727.147 512.15 727.147C518.629 727.147 523.733 725.355 527.462 721.772C530.858 718.48 532.556 714.418 532.556 709.584C532.556 704.355 530.858 700.137 527.462 696.928C525.42 695.012 523.233 693.668 520.9 692.897C518.316 692.022 515.379 691.574 512.087 691.553ZM591.025 692.116L586.243 699.741L585.431 699.178C585.806 698.553 585.993 698.084 585.993 697.772C585.993 697.126 584.879 696.209 582.65 695.022C578.358 692.689 573.962 691.522 569.462 691.522C564.233 691.522 559.827 692.991 556.243 695.928C552.139 699.262 550.087 703.762 550.087 709.428C550.087 714.949 552.045 719.345 555.962 722.616C559.566 725.637 564.17 727.147 569.775 727.147C572.733 727.147 575.545 726.689 578.212 725.772C580.9 724.834 583.16 723.532 584.993 721.866V713.991H574.9C574.025 713.991 573.4 714.126 573.025 714.397C572.67 714.668 572.4 715.199 572.212 715.991H571.212V707.928H572.212C572.4 708.72 572.67 709.251 573.025 709.522C573.4 709.793 574.025 709.928 574.9 709.928H591.681V710.928C590.889 711.137 590.358 711.418 590.087 711.772C589.816 712.126 589.681 712.741 589.681 713.616V719.147C589.681 720.022 589.816 720.637 590.087 720.991C590.358 721.345 590.889 721.626 591.681 721.834V722.709C589.327 724.814 587.108 726.449 585.025 727.616C580.504 730.157 575.348 731.428 569.556 731.428C562.431 731.428 556.67 729.501 552.275 725.647C550.108 723.751 548.389 721.48 547.118 718.834C545.681 715.814 544.962 712.626 544.962 709.272C544.962 704.459 546.368 700.189 549.181 696.459C551.785 693.022 555.285 690.512 559.681 688.928C562.785 687.824 566.118 687.272 569.681 687.272C572.806 687.272 575.702 687.647 578.368 688.397C581.035 689.147 583.91 690.387 586.993 692.116C587.889 692.616 588.441 692.866 588.65 692.866C588.983 692.866 589.493 692.428 590.181 691.553L591.025 692.116ZM629.243 718.709H606.4L602.65 726.803C602.295 727.574 602.118 728.116 602.118 728.428C602.118 729.053 602.733 729.47 603.962 729.678V730.678H594.462V729.678C595.316 729.532 595.962 729.22 596.4 728.741C596.858 728.262 597.452 727.22 598.181 725.616L613.806 691.897C614.181 691.084 614.368 690.532 614.368 690.241C614.368 689.699 613.858 689.293 612.837 689.022V688.022H623.212V689.022C622.191 689.355 621.681 689.793 621.681 690.334C621.681 690.564 621.868 691.084 622.243 691.897L637.212 724.397C638.316 726.793 639.045 728.199 639.4 728.616C639.754 729.032 640.525 729.387 641.712 729.678V730.678H631.587V729.678C632.795 729.512 633.4 729.053 633.4 728.303C633.4 727.97 633.17 727.324 632.712 726.366L629.243 718.709ZM627.4 714.647L617.806 693.584L608.243 714.647H627.4ZM648.15 727.428V691.272C648.15 690.647 648.004 690.168 647.712 689.834C647.42 689.501 646.9 689.23 646.15 689.022V688.022H668.65C673.754 688.022 677.66 688.73 680.368 690.147C683.785 691.918 686.389 694.647 688.181 698.334C689.743 701.564 690.525 705.23 690.525 709.334C690.525 714.189 689.473 718.376 687.368 721.897C685.473 725.022 683.066 727.272 680.15 728.647C677.254 730.001 673.42 730.678 668.65 730.678H646.15V729.678C646.9 729.47 647.42 729.199 647.712 728.866C648.004 728.532 648.15 728.053 648.15 727.428ZM653.056 726.616H668.462C672.983 726.616 676.337 725.918 678.525 724.522C681.108 722.855 683.004 720.303 684.212 716.866C685.004 714.574 685.4 712.064 685.4 709.334C685.4 704.376 684.139 700.272 681.618 697.022C680.223 695.23 678.525 693.959 676.525 693.209C674.525 692.459 671.837 692.084 668.462 692.084H653.056V726.616ZM726.868 718.709H704.025L700.275 726.803C699.92 727.574 699.743 728.116 699.743 728.428C699.743 729.053 700.358 729.47 701.587 729.678V730.678H692.087V729.678C692.941 729.532 693.587 729.22 694.025 728.741C694.483 728.262 695.077 727.22 695.806 725.616L711.431 691.897C711.806 691.084 711.993 690.532 711.993 690.241C711.993 689.699 711.483 689.293 710.462 689.022V688.022H720.837V689.022C719.816 689.355 719.306 689.793 719.306 690.334C719.306 690.564 719.493 691.084 719.868 691.897L734.837 724.397C735.941 726.793 736.67 728.199 737.025 728.616C737.379 729.032 738.15 729.387 739.337 729.678V730.678H729.212V729.678C730.42 729.512 731.025 729.053 731.025 728.303C731.025 727.97 730.795 727.324 730.337 726.366L726.868 718.709ZM725.025 714.647L715.431 693.584L705.868 714.647H725.025Z" fill="#B99E5A"/>
</svg>
