<svg width="1060" height="736" viewBox="0 0 1060 736" fill="none" xmlns="http://www.w3.org/2000/svg">
<path d="M377.28 10.6294C374.751 23.2755 368.113 29.9147 353.257 33.7086L342.194 36.8701L356.734 43.1932C366.533 47.6194 372.223 52.3617 374.435 58.6848C376.332 63.7432 378.861 70.6986 380.125 74.1763C382.338 79.5509 382.97 78.6024 385.499 68.8017C388.976 55.8394 403.832 40.9801 413.631 40.9801C423.114 40.9801 420.585 35.6055 410.154 33.7086C398.143 31.1794 388.344 21.3786 385.815 9.36474C383.602 -3.28142 379.809 -2.64911 377.28 10.6294Z" fill="white"/>
<path d="M329.55 96.3069C306.159 104.527 290.038 132.981 294.779 157.641C297.308 170.603 316.274 191.153 328.918 194.315C342.51 197.792 357.682 193.366 367.481 183.565C385.499 164.596 375.384 132.665 351.36 132.665C339.033 132.665 333.343 138.672 334.923 150.685C335.872 158.273 337.136 159.538 346.303 159.538C358.314 159.538 359.579 165.228 348.515 172.5C328.601 185.462 307.423 156.376 319.119 131.084C326.389 115.276 334.291 113.695 410.154 113.695H479.695V131.084V148.472H435.442H391.189V159.538V170.603H435.442H479.695L480.328 296.116C480.644 365.354 481.276 424.791 481.592 428.269C481.908 431.746 482.224 443.444 482.54 454.509L482.856 474.111L503.403 457.987L523.949 441.863V327.099C523.949 204.432 524.265 201.902 539.754 206.961C546.076 208.858 546.076 210.755 546.076 317.931C546.076 377.684 547.024 426.688 547.972 426.688C548.921 426.688 555.875 422.262 563.777 417.203L577.685 407.402V299.91V192.418L587.168 187.043C593.806 183.565 596.651 179.455 596.019 175.345C595.071 169.338 592.226 169.022 539.122 168.074C485.385 167.442 482.856 167.125 482.856 161.118C482.856 155.112 485.069 154.795 530.587 154.795C556.507 154.795 584.323 153.215 591.594 151.318C610.243 146.575 626.68 132.348 633.002 115.276C642.801 89.9838 652.916 91.5646 488.546 91.5646C370.958 91.8808 339.665 92.8292 329.55 96.3069Z" fill="white"/>
<path d="M382.338 200.954C375.384 205.696 375.384 206.644 375.384 288.844V371.993L391.505 382.11C400.355 387.484 407.942 391.911 408.89 391.911C409.522 391.911 410.154 350.494 410.154 300.226C410.154 212.651 409.838 208.225 403.832 202.218C396.246 194.631 391.821 194.314 382.338 200.954Z" fill="white"/>
<path d="M432.281 202.218C426.275 208.225 425.959 212.652 425.959 306.549V404.241L442.08 419.416C450.931 427.636 459.465 435.224 461.046 435.54C462.626 436.172 463.891 389.698 463.891 324.57C463.891 216.129 463.575 212.335 457.253 204.115C449.666 194.315 440.816 193.682 432.281 202.218Z" fill="white"/>
<path d="M43.1836 603.736L62.627 560.66C63.4505 558.833 63.8623 557.419 63.8623 556.417C63.8623 554.877 62.6807 553.874 60.3174 553.409V551.69H85.4004V553.409C83.8249 553.624 82.7327 554.071 82.124 554.751C81.5153 555.432 80.459 557.401 78.9551 560.66L53.5498 615.499C52.4756 617.826 51.9385 619.348 51.9385 620.064C51.9385 621.89 53.0664 622.964 55.3223 623.287V625.005H30.0781V623.287C32.334 622.964 33.4619 621.872 33.4619 620.01C33.4619 619.33 32.9248 617.826 31.8506 615.499L6.44531 560.66C4.94141 557.401 3.88509 555.432 3.27637 554.751C2.66764 554.071 1.57552 553.624 0 553.409V551.69H26.0498V553.409C23.6865 553.874 22.5049 554.877 22.5049 556.417C22.5049 557.419 22.9167 558.833 23.7402 560.66L43.1836 603.736ZM132.344 594.336V619.366C132.344 620.476 132.594 621.317 133.096 621.89C133.633 622.463 134.546 622.929 135.835 623.287V625.005H112.793V623.287C114.082 622.929 114.995 622.463 115.532 621.89C116.069 621.317 116.338 620.476 116.338 619.366V594.336L92.6514 560.982C90.6104 558.117 88.999 556.202 87.8174 555.235C86.6715 554.232 85.293 553.624 83.6816 553.409V551.69H112.632V553.409C110.233 553.803 109.033 554.913 109.033 556.739C109.033 557.383 109.767 558.798 111.235 560.982L124.448 580.64L138.037 560.982C139.505 558.869 140.239 557.437 140.239 556.685C140.239 555.861 139.917 555.163 139.272 554.59C138.628 553.982 137.751 553.588 136.641 553.409V551.69H165V553.409C163.389 553.624 161.992 554.232 160.811 555.235C159.665 556.202 158.071 558.117 156.03 560.982L132.344 594.336ZM206.357 603.736L225.801 560.66C226.624 558.833 227.036 557.419 227.036 556.417C227.036 554.877 225.854 553.874 223.491 553.409V551.69H248.574V553.409C246.999 553.624 245.907 554.071 245.298 554.751C244.689 555.432 243.633 557.401 242.129 560.66L216.724 615.499C215.649 617.826 215.112 619.348 215.112 620.064C215.112 621.89 216.24 622.964 218.496 623.287V625.005H193.252V623.287C195.508 622.964 196.636 621.872 196.636 620.01C196.636 619.33 196.099 617.826 195.024 615.499L169.619 560.66C168.115 557.401 167.059 555.432 166.45 554.751C165.841 554.071 164.749 553.624 163.174 553.409V551.69H189.224V553.409C186.86 553.874 185.679 554.877 185.679 556.417C185.679 557.419 186.09 558.833 186.914 560.66L206.357 603.736ZM258.35 619.366V557.276C258.35 556.202 258.099 555.378 257.598 554.805C257.096 554.232 256.201 553.767 254.912 553.409V551.69H277.793V553.409C276.504 553.731 275.609 554.196 275.107 554.805C274.606 555.378 274.355 556.202 274.355 557.276V619.366C274.355 620.476 274.606 621.335 275.107 621.944C275.645 622.517 276.54 622.964 277.793 623.287V625.005H254.912V623.287C256.201 622.929 257.096 622.463 257.598 621.89C258.099 621.317 258.35 620.476 258.35 619.366ZM344.717 606.314H311.416L306.475 616.626C305.794 618.059 305.454 619.187 305.454 620.01C305.454 621.586 306.654 622.678 309.053 623.287V625.005H284.775V623.287C286.208 623 287.3 622.499 288.052 621.783C288.804 621.067 289.663 619.67 290.63 617.593L317.593 561.25C318.452 559.46 318.882 558.028 318.882 556.954C318.882 555.306 317.843 554.125 315.767 553.409V551.69H341.763V553.409C339.65 554.017 338.594 555.074 338.594 556.578C338.594 557.616 338.934 558.798 339.614 560.123L367.544 616.626C368.726 619.026 369.764 620.673 370.659 621.568C371.554 622.427 372.754 623 374.258 623.287V625.005H347.295V623.287C349.658 622.893 350.84 621.783 350.84 619.957C350.84 619.205 350.482 618.095 349.766 616.626L344.717 606.314ZM340.098 596.27L328.228 570.167L316.196 596.27H340.098ZM398.589 574.786V619.366C398.589 620.476 398.84 621.317 399.341 621.89C399.842 622.463 400.737 622.929 402.026 623.287V625.005H380.488V623.287C381.777 622.929 382.673 622.463 383.174 621.89C383.675 621.317 383.926 620.476 383.926 619.366V557.276C383.926 556.202 383.675 555.378 383.174 554.805C382.673 554.232 381.777 553.767 380.488 553.409V551.69H405.41V553.409C403.87 553.803 403.101 554.626 403.101 555.879C403.101 556.739 403.602 557.688 404.604 558.726L445.049 600.782V557.276C445.049 556.202 444.798 555.378 444.297 554.805C443.796 554.232 442.9 553.767 441.611 553.409V551.69H463.149V553.409C461.86 553.767 460.965 554.232 460.464 554.805C459.963 555.378 459.712 556.202 459.712 557.276V619.366C459.712 620.476 459.963 621.317 460.464 621.89C460.965 622.463 461.86 622.929 463.149 623.287V625.005H440.054V623.287C441.558 622.964 442.31 622.194 442.31 620.977C442.31 620.261 441.432 619.008 439.678 617.217L398.589 574.786ZM557.627 606.314H524.326L519.385 616.626C518.704 618.059 518.364 619.187 518.364 620.01C518.364 621.586 519.564 622.678 521.963 623.287V625.005H497.686V623.287C499.118 623 500.21 622.499 500.962 621.783C501.714 621.067 502.573 619.67 503.54 617.593L530.503 561.25C531.362 559.46 531.792 558.028 531.792 556.954C531.792 555.306 530.754 554.125 528.677 553.409V551.69H554.673V553.409C552.56 554.017 551.504 555.074 551.504 556.578C551.504 557.616 551.844 558.798 552.524 560.123L580.454 616.626C581.636 619.026 582.674 620.673 583.569 621.568C584.465 622.427 585.664 623 587.168 623.287V625.005H560.205V623.287C562.568 622.893 563.75 621.783 563.75 619.957C563.75 619.205 563.392 618.095 562.676 616.626L557.627 606.314ZM553.008 596.27L541.138 570.167L529.106 596.27H553.008ZM620.146 603.736L639.59 560.66C640.413 558.833 640.825 557.419 640.825 556.417C640.825 554.877 639.644 553.874 637.28 553.409V551.69H662.363V553.409C660.788 553.624 659.696 554.071 659.087 554.751C658.478 555.432 657.422 557.401 655.918 560.66L630.513 615.499C629.438 617.826 628.901 619.348 628.901 620.064C628.901 621.89 630.029 622.964 632.285 623.287V625.005H607.041V623.287C609.297 622.964 610.425 621.872 610.425 620.01C610.425 619.33 609.888 617.826 608.813 615.499L583.408 560.66C581.904 557.401 580.848 555.432 580.239 554.751C579.631 554.071 578.538 553.624 576.963 553.409V551.69H603.013V553.409C600.649 553.874 599.468 554.877 599.468 556.417C599.468 557.419 599.88 558.833 600.703 560.66L620.146 603.736ZM688.145 592.833V612.92H735.303C736.377 612.92 737.201 612.67 737.773 612.168C738.346 611.667 738.812 610.772 739.17 609.483H740.889V628.443H739.17C738.812 627.154 738.346 626.259 737.773 625.757C737.201 625.256 736.377 625.005 735.303 625.005H668.701V623.287C669.99 622.929 670.885 622.463 671.387 621.89C671.888 621.317 672.139 620.476 672.139 619.366V557.33C672.139 556.22 671.888 555.378 671.387 554.805C670.885 554.232 669.99 553.767 668.701 553.409V551.69H734.014C735.088 551.69 735.911 551.439 736.484 550.938C737.057 550.401 737.523 549.488 737.881 548.199H739.6V567.159H737.881C737.523 565.905 737.057 565.028 736.484 564.527C735.911 564.026 735.088 563.775 734.014 563.775H688.145V581.177H717.9C718.975 581.177 719.798 580.927 720.371 580.425C720.944 579.924 721.41 579.029 721.768 577.74H723.486V596.27H721.768C721.41 595.017 720.944 594.139 720.371 593.638C719.798 593.101 718.975 592.833 717.9 592.833H688.145ZM770.376 574.786V619.366C770.376 620.476 770.627 621.317 771.128 621.89C771.629 622.463 772.524 622.929 773.813 623.287V625.005H752.275V623.287C753.564 622.929 754.46 622.463 754.961 621.89C755.462 621.317 755.713 620.476 755.713 619.366V557.276C755.713 556.202 755.462 555.378 754.961 554.805C754.46 554.232 753.564 553.767 752.275 553.409V551.69H777.197V553.409C775.658 553.803 774.888 554.626 774.888 555.879C774.888 556.739 775.389 557.688 776.392 558.726L816.836 600.782V557.276C816.836 556.202 816.585 555.378 816.084 554.805C815.583 554.232 814.688 553.767 813.398 553.409V551.69H834.937V553.409C833.647 553.767 832.752 554.232 832.251 554.805C831.75 555.378 831.499 556.202 831.499 557.276V619.366C831.499 620.476 831.75 621.317 832.251 621.89C832.752 622.463 833.647 622.929 834.937 623.287V625.005H811.841V623.287C813.345 622.964 814.097 622.194 814.097 620.977C814.097 620.261 813.219 619.008 811.465 617.217L770.376 574.786ZM903.096 606.314H869.795L864.854 616.626C864.173 618.059 863.833 619.187 863.833 620.01C863.833 621.586 865.033 622.678 867.432 623.287V625.005H843.154V623.287C844.587 623 845.679 622.499 846.431 621.783C847.183 621.067 848.042 619.67 849.009 617.593L875.972 561.25C876.831 559.46 877.261 558.028 877.261 556.954C877.261 555.306 876.222 554.125 874.146 553.409V551.69H900.142V553.409C898.029 554.017 896.973 555.074 896.973 556.578C896.973 557.616 897.313 558.798 897.993 560.123L925.923 616.626C927.104 619.026 928.143 620.673 929.038 621.568C929.933 622.427 931.133 623 932.637 623.287V625.005H905.674V623.287C908.037 622.893 909.219 621.783 909.219 619.957C909.219 619.205 908.861 618.095 908.145 616.626L903.096 606.314ZM898.477 596.27L886.606 570.167L874.575 596.27H898.477Z" fill="white"/>
<path d="M301.896 722.484H279.052L275.302 730.578C274.948 731.349 274.771 731.891 274.771 732.203C274.771 732.828 275.386 733.245 276.615 733.453V734.453H267.115V733.453C267.969 733.307 268.615 732.995 269.052 732.516C269.511 732.036 270.105 730.995 270.834 729.391L286.459 695.672C286.834 694.859 287.021 694.307 287.021 694.016C287.021 693.474 286.511 693.068 285.49 692.797V691.797H295.865V692.797C294.844 693.13 294.334 693.568 294.334 694.109C294.334 694.339 294.521 694.859 294.896 695.672L309.865 728.172C310.969 730.568 311.698 731.974 312.052 732.391C312.407 732.807 313.177 733.161 314.365 733.453V734.453H304.24V733.453C305.448 733.286 306.052 732.828 306.052 732.078C306.052 731.745 305.823 731.099 305.365 730.141L301.896 722.484ZM300.052 718.422L290.459 697.359L280.896 718.422H300.052ZM320.802 731.203V695.047C320.802 694.422 320.657 693.943 320.365 693.609C320.073 693.276 319.552 693.005 318.802 692.797V691.797H341.302C346.407 691.797 350.313 692.505 353.021 693.922C356.438 695.693 359.042 698.422 360.834 702.109C362.396 705.339 363.177 709.005 363.177 713.109C363.177 717.964 362.125 722.151 360.021 725.672C358.125 728.797 355.719 731.047 352.802 732.422C349.907 733.776 346.073 734.453 341.302 734.453H318.802V733.453C319.552 733.245 320.073 732.974 320.365 732.641C320.657 732.307 320.802 731.828 320.802 731.203ZM325.709 730.391H341.115C345.636 730.391 348.99 729.693 351.177 728.297C353.761 726.63 355.657 724.078 356.865 720.641C357.657 718.349 358.052 715.839 358.052 713.109C358.052 708.151 356.792 704.047 354.271 700.797C352.875 699.005 351.177 697.734 349.177 696.984C347.177 696.234 344.49 695.859 341.115 695.859H325.709V730.391ZM387.959 728.891L401.771 697.297C402.355 696.005 402.646 695.047 402.646 694.422C402.646 693.63 402.042 693.089 400.834 692.797V691.797H410.49V692.797C409.511 693.089 408.834 693.474 408.459 693.953C408.105 694.432 407.427 695.818 406.427 698.109L392.677 729.109C392.157 730.339 391.896 731.224 391.896 731.766C391.896 732.641 392.49 733.203 393.677 733.453V734.453H381.802V733.453C382.99 733.203 383.584 732.62 383.584 731.703C383.584 731.203 383.313 730.339 382.771 729.109L368.771 697.172C368 695.443 367.427 694.349 367.052 693.891C366.677 693.432 366.021 693.068 365.084 692.797V691.797H375.271V692.797C374.042 693.089 373.427 693.63 373.427 694.422C373.427 695.13 373.698 696.089 374.24 697.297L387.959 728.891ZM437.552 691.047C445.073 691.047 451.136 693.016 455.74 696.953C458.323 699.141 460.261 701.818 461.552 704.984C462.615 707.589 463.146 710.391 463.146 713.391C463.146 717.453 461.99 721.255 459.677 724.797C457.136 728.714 453.605 731.536 449.084 733.266C445.709 734.557 441.886 735.203 437.615 735.203C430.136 735.203 424.105 733.234 419.521 729.297C416.959 727.089 415.021 724.411 413.709 721.266C412.646 718.682 412.115 715.964 412.115 713.109C412.115 708.88 413.261 704.984 415.552 701.422C418.052 697.568 421.594 694.755 426.177 692.984C429.386 691.755 433.177 691.109 437.552 691.047ZM437.552 695.328C431.157 695.328 426.094 697.12 422.365 700.703C418.948 703.995 417.24 708.13 417.24 713.109C417.24 718.109 418.948 722.255 422.365 725.547C426.073 729.13 431.157 730.922 437.615 730.922C444.094 730.922 449.198 729.13 452.927 725.547C456.323 722.255 458.021 718.193 458.021 713.359C458.021 708.13 456.323 703.911 452.927 700.703C450.886 698.786 448.698 697.443 446.365 696.672C443.782 695.797 440.844 695.349 437.552 695.328ZM516.49 695.891L511.709 703.516L510.896 702.953C511.271 702.328 511.459 701.859 511.459 701.547C511.459 700.901 510.344 699.984 508.115 698.797C503.823 696.464 499.427 695.297 494.927 695.297C489.698 695.297 485.292 696.766 481.709 699.703C477.605 703.036 475.552 707.536 475.552 713.203C475.552 718.724 477.511 723.12 481.427 726.391C485.032 729.411 489.636 730.922 495.24 730.922C498.198 730.922 501.011 730.464 503.677 729.547C506.365 728.609 508.625 727.307 510.459 725.641V717.766H500.365C499.49 717.766 498.865 717.901 498.49 718.172C498.136 718.443 497.865 718.974 497.677 719.766H496.677V711.703H497.677C497.865 712.495 498.136 713.026 498.49 713.297C498.865 713.568 499.49 713.703 500.365 713.703H517.146V714.703C516.355 714.911 515.823 715.193 515.552 715.547C515.282 715.901 515.146 716.516 515.146 717.391V722.922C515.146 723.797 515.282 724.411 515.552 724.766C515.823 725.12 516.355 725.401 517.146 725.609V726.484C514.792 728.589 512.573 730.224 510.49 731.391C505.969 733.932 500.813 735.203 495.021 735.203C487.896 735.203 482.136 733.276 477.74 729.422C475.573 727.526 473.855 725.255 472.584 722.609C471.146 719.589 470.427 716.401 470.427 713.047C470.427 708.234 471.834 703.964 474.646 700.234C477.25 696.797 480.75 694.286 485.146 692.703C488.25 691.599 491.584 691.047 495.146 691.047C498.271 691.047 501.167 691.422 503.834 692.172C506.5 692.922 509.375 694.161 512.459 695.891C513.355 696.391 513.907 696.641 514.115 696.641C514.448 696.641 514.959 696.203 515.646 695.328L516.49 695.891ZM554.709 722.484H531.865L528.115 730.578C527.761 731.349 527.584 731.891 527.584 732.203C527.584 732.828 528.198 733.245 529.427 733.453V734.453H519.927V733.453C520.782 733.307 521.427 732.995 521.865 732.516C522.323 732.036 522.917 730.995 523.646 729.391L539.271 695.672C539.646 694.859 539.834 694.307 539.834 694.016C539.834 693.474 539.323 693.068 538.302 692.797V691.797H548.677V692.797C547.657 693.13 547.146 693.568 547.146 694.109C547.146 694.339 547.334 694.859 547.709 695.672L562.677 728.172C563.782 730.568 564.511 731.974 564.865 732.391C565.219 732.807 565.99 733.161 567.177 733.453V734.453H557.052V733.453C558.261 733.286 558.865 732.828 558.865 732.078C558.865 731.745 558.636 731.099 558.177 730.141L554.709 722.484ZM552.865 718.422L543.271 697.359L533.709 718.422H552.865ZM573.615 731.203V695.047C573.615 694.422 573.469 693.943 573.177 693.609C572.886 693.276 572.365 693.005 571.615 692.797V691.797H594.115C599.219 691.797 603.125 692.505 605.834 693.922C609.25 695.693 611.855 698.422 613.646 702.109C615.209 705.339 615.99 709.005 615.99 713.109C615.99 717.964 614.938 722.151 612.834 725.672C610.938 728.797 608.532 731.047 605.615 732.422C602.719 733.776 598.886 734.453 594.115 734.453H571.615V733.453C572.365 733.245 572.886 732.974 573.177 732.641C573.469 732.307 573.615 731.828 573.615 731.203ZM578.521 730.391H593.927C598.448 730.391 601.802 729.693 603.99 728.297C606.573 726.63 608.469 724.078 609.677 720.641C610.469 718.349 610.865 715.839 610.865 713.109C610.865 708.151 609.605 704.047 607.084 700.797C605.688 699.005 603.99 697.734 601.99 696.984C599.99 696.234 597.302 695.859 593.927 695.859H578.521V730.391ZM652.334 722.484H629.49L625.74 730.578C625.386 731.349 625.209 731.891 625.209 732.203C625.209 732.828 625.823 733.245 627.052 733.453V734.453H617.552V733.453C618.407 733.307 619.052 732.995 619.49 732.516C619.948 732.036 620.542 730.995 621.271 729.391L636.896 695.672C637.271 694.859 637.459 694.307 637.459 694.016C637.459 693.474 636.948 693.068 635.927 692.797V691.797H646.302V692.797C645.282 693.13 644.771 693.568 644.771 694.109C644.771 694.339 644.959 694.859 645.334 695.672L660.302 728.172C661.407 730.568 662.136 731.974 662.49 732.391C662.844 732.807 663.615 733.161 664.802 733.453V734.453H654.677V733.453C655.886 733.286 656.49 732.828 656.49 732.078C656.49 731.745 656.261 731.099 655.802 730.141L652.334 722.484ZM650.49 718.422L640.896 697.359L631.334 718.422H650.49Z" fill="white"/>
</svg>
