<svg width="1200" height="630" viewBox="0 0 1200 630" fill="none" xmlns="http://www.w3.org/2000/svg">
<path d="M71.2627 185.725C71.3563 185.626 71.4822 185.431 71.6357 185.093C71.7858 184.762 71.9473 184.327 72.126 183.777C72.4833 182.678 72.8949 181.161 73.4053 179.184L73.4062 179.179C74.8387 173.84 78.5971 168.153 82.9766 163.806C85.1698 161.629 87.5327 159.773 89.8594 158.459C92.1799 157.149 94.4991 156.358 96.5947 156.357C98.4821 156.357 99.683 156.086 100.321 155.722C100.633 155.543 100.771 155.366 100.823 155.228C100.872 155.099 100.873 154.934 100.768 154.712C100.539 154.23 99.8615 153.608 98.6338 153C97.5798 152.478 96.1772 151.995 94.4561 151.63L93.6992 151.481L93.6855 151.479C83.7972 149.397 75.7371 141.337 73.6553 131.448L73.6533 131.439L73.6523 131.432C73.2086 128.896 72.6907 127.065 72.1484 125.904C71.8764 125.322 71.6141 124.942 71.3789 124.725C71.1521 124.515 70.9893 124.487 70.8721 124.505C70.7322 124.526 70.5186 124.635 70.2461 124.963C69.9779 125.286 69.6922 125.774 69.4014 126.448C68.8203 127.795 68.2543 129.796 67.7471 132.459L67.7461 132.464C66.7119 137.635 64.8264 141.629 61.6406 144.716C58.4634 147.795 54.0375 149.929 48.0029 151.471H48.0039L40.416 153.639L50.8721 158.185L50.8789 158.188C58.8252 161.776 63.5765 165.679 65.4316 170.979L65.4307 170.979C66.9606 175.06 68.9982 180.661 70.0186 183.467C70.4668 184.554 70.8086 185.249 71.0869 185.598C71.1544 185.682 71.2036 185.727 71.2334 185.75C71.2412 185.743 71.2521 185.736 71.2627 185.725Z" fill="white" stroke="white"/>
<path d="M168.741 492.972L185.133 480.11V387.744C185.133 338.275 185.196 312.97 186.828 300.555C187.237 297.446 187.747 295.114 188.392 293.401C189.036 291.69 189.834 290.548 190.849 289.885C191.872 289.216 193.039 289.085 194.311 289.234C195.567 289.382 196.979 289.812 198.532 290.319L198.533 290.318C199.173 290.51 199.805 290.721 200.369 291.134C200.945 291.555 201.414 292.159 201.8 293.079C202.555 294.88 203.035 298.002 203.354 303.685C203.992 315.088 203.992 337.113 203.992 380.346C203.992 404.452 204.183 426.389 204.47 442.299C204.613 450.254 204.781 456.7 204.96 461.155C205.05 463.384 205.142 465.109 205.235 466.274C205.277 466.794 205.319 467.193 205.359 467.474C205.576 467.376 205.859 467.234 206.203 467.047C206.925 466.654 207.889 466.085 209.035 465.385C211.321 463.988 214.307 462.083 217.49 460.046V460.045L228.504 452.286V278.771L228.758 278.627L236.411 274.29L236.418 274.285L236.426 274.282C241.731 271.503 243.766 268.346 243.307 265.361C243.121 264.189 242.863 263.433 242.037 262.836C241.156 262.199 239.572 261.699 236.562 261.316C231.319 260.651 222.048 260.372 205.444 260.056L197.87 259.917C176.205 259.662 164.814 259.471 158.848 258.733C155.886 258.367 154.139 257.856 153.146 257.041C152.089 256.173 151.967 255.036 151.967 253.805C151.967 252.588 152.069 251.464 152.976 250.601C153.844 249.774 155.364 249.276 157.887 248.94C162.967 248.265 172.643 248.202 190.991 248.202C201.442 248.202 212.275 247.884 221.227 247.374C230.2 246.863 237.227 246.163 240.104 245.412L240.106 245.411C255.012 241.622 268.141 230.249 273.182 216.639L273.185 216.631C273.681 215.349 274.179 214.153 274.641 213.042C275.103 211.928 275.528 210.904 275.885 209.954C276.605 208.039 277.016 206.504 276.927 205.247C276.841 204.046 276.295 203.057 274.949 202.212C273.568 201.345 271.359 200.639 267.988 200.084C261.256 198.975 250.124 198.496 232.351 198.297C214.587 198.098 190.228 198.178 157.06 198.178H157.061C109.607 198.305 79.5728 198.56 60.3828 199.134C50.7874 199.421 43.9116 199.787 38.9287 200.256C34.2509 200.696 31.2685 201.225 29.2803 201.851L28.8955 201.978C19.5913 205.248 11.7066 212.553 6.62109 221.523C1.53559 230.494 -0.726651 241.089 1.16016 250.902C2.15367 255.994 6.41382 262.671 11.751 268.421C17.0899 274.173 23.3856 278.868 28.3438 280.107L28.3467 280.108C38.9715 282.826 50.8293 279.461 58.626 271.927L58.9941 271.564C66.1235 264.053 67.6843 253.982 65.0898 245.792C62.4957 237.603 55.7722 231.344 46.3359 231.344C41.4289 231.344 37.9591 232.54 35.8613 234.817C33.7686 237.089 32.9379 240.551 33.5654 245.32L33.5664 245.323C33.7573 246.85 33.9596 248.02 34.2617 248.927C34.5606 249.823 34.947 250.431 35.4873 250.863C36.0331 251.3 36.7852 251.597 37.8877 251.78C38.9929 251.964 40.4096 252.029 42.2539 252.029C44.7078 252.029 46.6612 252.318 48.0635 252.873C49.4641 253.427 50.4033 254.288 50.623 255.467C50.838 256.62 50.3254 257.892 49.2812 259.192C48.2276 260.504 46.5699 261.925 44.3145 263.407L44.3125 263.408C40.1788 266.098 35.9486 266.62 32.0889 265.531C28.2423 264.446 24.8062 261.773 22.2041 258.146C17.0026 250.897 15.0613 239.737 19.8594 229.36V229.359C21.3377 226.146 22.8761 223.59 25.3457 221.604C27.8138 219.62 31.1636 218.242 36.1963 217.277C46.2361 215.353 63.1961 215.036 93.7891 215.036H150.416V244.1H78.9814V260.958H150.413L150.416 261.456L150.927 362.739C151.054 390.674 151.245 416.633 151.437 435.957C151.628 455.302 151.819 467.961 151.944 469.338C152.201 472.165 152.457 481.629 152.712 490.544V490.551L152.95 505.361L168.741 492.972Z" fill="white" stroke="white"/>
<path d="M1016.83 311.723L991.835 312.473L966.322 313.238L965.808 313.253V293.582L966.338 293.615L982.913 294.636L982.914 294.635L998.974 295.377V281.116L982.92 281.857H982.921L966.338 282.878L965.808 282.91V265.529L966.328 265.551L991.329 266.572L1015.56 267.321V259.417C1015.56 257.264 1015.43 255.315 1015.21 253.947C1015.1 253.257 1014.97 252.747 1014.84 252.438C1014.81 252.366 1014.78 252.315 1014.76 252.279C1014.69 252.292 1014.61 252.304 1014.54 252.313C1014.38 252.334 1014.16 252.356 1013.9 252.379C1013.38 252.425 1012.67 252.478 1011.78 252.534C1010.01 252.646 1007.53 252.774 1004.53 252.901C998.535 253.157 990.433 253.411 981.63 253.539H981.631L950.225 254.545V324.496L983.667 325.249L1016.83 326.004V311.723Z" fill="white" stroke="white"/>
<path d="M422.642 324.738C424.741 324.738 426.432 324.69 427.759 324.58C429.095 324.469 430.026 324.299 430.628 324.069C431.236 323.838 431.376 323.601 431.404 323.434C431.441 323.211 431.341 322.83 430.906 322.209C430.523 321.729 430.222 320.93 429.979 319.98C429.724 318.987 429.514 317.751 429.353 316.367C429.03 313.597 428.902 310.19 429.03 306.851V306.843C429.288 301.952 429.999 298.066 431.908 293.567C433.811 289.086 436.896 284.012 441.873 276.737L441.875 276.735C445.326 271.751 448.842 267.084 451.722 263.564C453.161 261.805 454.446 260.327 455.486 259.238C456.006 258.694 456.471 258.242 456.866 257.898C457.25 257.565 457.606 257.301 457.906 257.172V257.171L457.918 257.167C458.21 257.05 458.505 257.111 458.738 257.212C458.975 257.314 459.214 257.482 459.451 257.685C459.928 258.093 460.482 258.72 461.095 259.514C462.325 261.108 463.857 263.46 465.568 266.319C468.994 272.043 473.17 279.852 477.144 287.831C481.117 295.81 484.893 303.97 487.519 310.396C488.83 313.606 489.86 316.395 490.481 318.517C490.792 319.575 491.005 320.483 491.099 321.202C491.145 321.561 491.164 321.888 491.146 322.17C491.127 322.444 491.071 322.724 490.929 322.952L490.925 322.958L490.92 322.965C490.847 323.074 490.854 323.125 490.857 323.141C490.862 323.166 490.888 323.239 491.019 323.35C491.293 323.582 491.852 323.832 492.73 324.052C494.458 324.484 497.154 324.738 500.454 324.738C504.675 324.738 507.404 324.543 508.946 324.06C509.718 323.818 510.09 323.534 510.247 323.265C510.39 323.02 510.42 322.67 510.194 322.107L510.186 322.084L510.178 322.059C510.12 321.856 510.122 321.614 510.142 321.38C510.163 321.132 510.211 320.837 510.28 320.504C510.42 319.836 510.656 318.975 510.975 317.95C511.613 315.898 512.599 313.151 513.86 309.909C516.227 303.829 519.574 295.984 523.455 287.662L524.238 285.991L539.209 254.304H528.772C526.48 254.304 524.68 254.352 523.28 254.478C521.872 254.604 520.91 254.805 520.27 255.09C519.652 255.364 519.367 255.699 519.24 256.105C519.101 256.551 519.124 257.163 519.312 258.036L519.311 258.037C519.392 258.409 519.38 258.895 519.314 259.439C519.247 259.998 519.119 260.664 518.939 261.417C518.58 262.924 518.009 264.812 517.291 266.936C515.855 271.184 513.817 276.411 511.661 281.489C509.506 286.567 507.228 291.507 505.311 295.182C504.353 297.017 503.478 298.549 502.749 299.628C502.386 300.165 502.049 300.607 501.745 300.919C501.594 301.075 501.438 301.212 501.281 301.312C501.13 301.409 500.933 301.502 500.709 301.502C500.485 301.502 500.289 301.409 500.138 301.312C499.981 301.212 499.825 301.075 499.674 300.919C499.37 300.607 499.032 300.165 498.669 299.628C497.94 298.549 497.066 297.017 496.108 295.182C494.191 291.507 491.912 286.567 489.757 281.489C487.601 276.411 485.563 271.184 484.127 266.936C483.409 264.812 482.839 262.924 482.479 261.417C482.3 260.664 482.171 259.998 482.104 259.439C482.038 258.893 482.025 258.405 482.107 258.032L482.109 258.022L482.112 258.013C482.361 257.079 482.333 256.54 482.036 256.153C481.71 255.729 480.951 255.331 479.285 255.029C475.992 254.433 469.732 254.304 458.358 254.304C448.016 254.304 441.871 254.496 438.44 255.031C436.706 255.302 435.77 255.647 435.322 256.019C435.117 256.189 435.033 256.35 435.003 256.509C434.971 256.68 434.993 256.903 435.103 257.205C435.204 257.484 435.212 257.822 435.181 258.159C435.149 258.508 435.069 258.913 434.955 259.358C434.726 260.25 434.343 261.349 433.853 262.572C432.871 265.021 431.444 268.012 429.908 270.908C428.372 273.804 426.72 276.62 425.287 278.718C424.572 279.764 423.902 280.646 423.321 281.271C423.032 281.582 422.752 281.843 422.489 282.03C422.241 282.207 421.94 282.367 421.621 282.367C421.302 282.367 421.001 282.207 420.753 282.03C420.491 281.843 420.211 281.582 419.922 281.271C419.341 280.646 418.671 279.764 417.956 278.718C416.523 276.62 414.871 273.804 413.335 270.908C411.799 268.012 410.371 265.021 409.39 262.572C408.9 261.349 408.516 260.25 408.287 259.358C408.173 258.913 408.094 258.508 408.062 258.159C408.031 257.822 408.038 257.484 408.14 257.205C408.249 256.903 408.271 256.68 408.239 256.509C408.21 256.35 408.125 256.189 407.92 256.019C407.473 255.647 406.537 255.302 404.802 255.031C401.371 254.496 395.226 254.304 384.884 254.304C373.379 254.304 367.124 254.434 363.866 255.061C362.222 255.377 361.495 255.795 361.186 256.241C360.89 256.668 360.879 257.266 361.132 258.275L361.131 258.276C361.248 258.656 361.265 259.149 361.224 259.696C361.18 260.275 361.068 260.97 360.9 261.757C360.564 263.333 359.993 265.322 359.24 267.579C357.735 272.095 355.495 277.725 352.938 283.35L352.937 283.353L343.497 303.763L343.044 304.742L342.59 303.764L332.641 282.333L332.639 282.33C329.956 276.453 327.59 270.699 325.989 266.186C325.189 263.93 324.577 261.974 324.213 260.463C324.031 259.708 323.907 259.052 323.855 258.519C323.807 258.024 323.811 257.553 323.95 257.206L323.949 257.205C324.183 256.562 324.172 256.144 324.03 255.853C323.887 255.558 323.546 255.262 322.82 255.01C321.351 254.5 318.695 254.304 314.47 254.304C311.304 254.304 308.465 254.558 306.429 254.934C305.407 255.122 304.608 255.338 304.077 255.558C303.809 255.668 303.636 255.769 303.539 255.85C303.515 255.869 303.502 255.887 303.492 255.897C303.51 256.291 303.715 256.943 304.103 257.688C304.498 258.448 305.044 259.233 305.639 259.828L305.648 259.838C306.275 260.499 307.177 261.953 308.257 263.925C309.348 265.918 310.651 268.496 312.078 271.453C314.932 277.369 318.292 284.822 321.467 292.193C324.642 299.564 327.634 306.858 329.754 312.456C330.813 315.254 331.659 317.635 332.199 319.394C332.469 320.271 332.667 321.006 332.776 321.563C332.831 321.841 332.867 322.09 332.876 322.298C332.884 322.478 332.879 322.726 332.766 322.93L332.756 322.947L332.744 322.965C332.671 323.075 332.679 323.125 332.682 323.14C332.687 323.165 332.713 323.238 332.845 323.349C333.123 323.582 333.69 323.831 334.584 324.051C336.344 324.483 339.104 324.738 342.533 324.738C345.962 324.738 348.722 324.483 350.482 324.051C351.377 323.831 351.943 323.582 352.222 323.349C352.354 323.238 352.38 323.165 352.385 323.14C352.388 323.125 352.395 323.075 352.322 322.965L352.311 322.947L352.301 322.93C352.188 322.727 352.183 322.481 352.19 322.302C352.199 322.096 352.234 321.85 352.288 321.575C352.396 321.024 352.591 320.299 352.857 319.434C353.392 317.7 354.229 315.351 355.28 312.587C357.385 307.057 360.362 299.835 363.536 292.48C366.711 285.126 370.087 277.633 372.988 271.562C374.439 268.528 375.772 265.845 376.904 263.711C378.031 261.588 378.973 259.978 379.64 259.111L379.645 259.105L379.65 259.099C380.574 257.977 381.578 257.212 382.845 257.207C384.08 257.202 385.405 257.926 386.972 259.331C390.116 262.151 394.615 268.073 401.874 278.261L401.873 278.262C407.47 286.021 410.457 290.359 411.89 294.591C413.15 298.314 413.2 301.932 412.852 307.641L412.681 310.221L411.942 324.738H422.642Z" fill="white" stroke="white"/>
<path d="M566.542 324.738V254.304H549.683V324.738H566.542Z" fill="white" stroke="white"/>
<path d="M650.466 324.738C653.53 324.738 655.845 324.723 657.539 324.632C658.386 324.586 659.066 324.523 659.602 324.436C660.143 324.347 660.503 324.24 660.729 324.124C660.947 324.012 660.985 323.923 660.996 323.881C661.012 323.819 661.013 323.679 660.884 323.406C660.622 322.852 659.995 322.081 659.029 320.986C658.131 320.022 656.988 318.366 655.688 316.231C654.383 314.088 652.902 311.433 651.327 308.45C648.176 302.484 644.64 295.187 641.368 288.006C638.097 280.825 635.087 273.751 632.989 268.229C631.941 265.469 631.116 263.087 630.602 261.27C630.345 260.362 630.161 259.584 630.067 258.963C630.02 258.653 629.995 258.371 629.995 258.127C629.995 257.901 630.019 257.672 630.093 257.474L630.092 257.473C630.333 256.75 630.336 256.278 630.187 255.947C630.041 255.627 629.692 255.31 628.906 255.043C628.122 254.777 626.985 254.588 625.398 254.47C623.819 254.352 621.824 254.304 619.341 254.304C614.609 254.304 611.62 254.498 609.945 254.985C609.104 255.23 608.704 255.52 608.536 255.79C608.387 256.03 608.355 256.371 608.58 256.935L608.585 256.948L608.59 256.963C608.66 257.175 608.667 257.426 608.652 257.67C608.637 257.925 608.592 258.225 608.525 258.561C608.391 259.232 608.158 260.087 607.843 261.093C607.211 263.107 606.236 265.767 605.021 268.849C602.589 275.014 599.181 282.9 595.591 290.75C592.001 298.6 588.226 306.421 585.06 312.459C583.477 315.477 582.042 318.057 580.856 319.973C580.264 320.93 579.729 321.729 579.266 322.338C578.815 322.929 578.391 323.395 578.017 323.624L578.011 323.628L578.004 323.632C577.987 323.641 577.973 323.652 577.959 323.661C578.038 323.708 578.152 323.764 578.309 323.825C578.562 323.923 578.894 324.021 579.302 324.113C580.941 324.484 583.641 324.738 586.94 324.738C590.367 324.738 593.262 324.483 595.159 324.079C596.121 323.874 596.769 323.642 597.105 323.421C597.208 323.353 597.257 323.303 597.278 323.275C597.274 323.27 597.271 323.263 597.265 323.255L597.244 323.229L597.227 323.199C596.967 322.766 596.869 322.164 596.856 321.521C596.844 320.86 596.92 320.085 597.067 319.252C597.362 317.584 597.948 315.634 598.727 313.816L599.187 314.013L598.727 313.815L598.731 313.805C599.435 312.27 600.081 311.035 600.897 310.07C601.728 309.09 602.722 308.402 604.094 307.928C605.449 307.459 607.169 307.2 609.451 307.056C611.737 306.911 614.622 306.88 618.32 306.88C625.192 306.88 629.411 307.068 632.201 307.855C633.613 308.254 634.682 308.812 635.552 309.591C636.412 310.361 637.048 311.324 637.634 312.491C638.563 313.959 639.154 315.739 639.416 317.411C639.677 319.078 639.623 320.704 639.199 321.838H639.2C638.966 322.483 638.983 322.887 639.137 323.169C639.298 323.463 639.685 323.769 640.534 324.026C642.236 324.543 645.347 324.738 650.466 324.738ZM606.136 296.955L611.748 285.475C613.277 282.353 614.521 279.99 615.62 278.438C616.169 277.662 616.703 277.057 617.243 276.662C617.791 276.261 618.376 276.056 618.996 276.143C619.603 276.228 620.151 276.582 620.66 277.104C621.171 277.627 621.681 278.357 622.21 279.273C623.269 281.107 624.459 283.782 625.925 287.287L625.929 287.297L629.756 296.991L630.025 297.675H605.784L606.136 296.955Z" fill="white" stroke="white"/>
<path d="M686.432 324.738L685.684 302.296C685.428 295.274 685.428 289.514 685.685 285.503C685.813 283.502 686.006 281.913 686.271 280.813C686.403 280.268 686.561 279.809 686.757 279.475C686.942 279.158 687.248 278.817 687.714 278.816C687.93 278.816 688.15 278.889 688.347 278.977C688.553 279.068 688.782 279.198 689.026 279.355C689.516 279.671 690.112 280.125 690.791 280.691C692.151 281.826 693.888 283.443 695.858 285.382C699.802 289.262 704.712 294.459 709.483 299.741C714.255 305.023 718.895 310.397 722.295 314.629C723.994 316.743 725.389 318.58 726.339 319.981C726.813 320.681 727.185 321.283 727.427 321.765C727.547 322.005 727.643 322.229 727.702 322.429C727.756 322.611 727.802 322.848 727.74 323.074L727.733 323.102L727.728 323.116C727.729 323.119 727.731 323.121 727.733 323.124C727.772 323.18 727.876 323.278 728.099 323.399C728.539 323.639 729.272 323.875 730.262 324.079C732.227 324.485 735.061 324.738 738.229 324.738C741.788 324.738 744.48 324.483 746.14 324.053C746.984 323.834 747.484 323.588 747.714 323.369C747.819 323.269 747.837 323.204 747.841 323.177C747.844 323.151 747.843 323.085 747.763 322.965C747.658 322.808 747.579 322.604 747.515 322.393C747.448 322.173 747.386 321.909 747.328 321.607C747.213 321.003 747.108 320.217 747.012 319.278C746.819 317.398 746.659 314.867 746.531 311.865C746.276 305.86 746.147 297.944 746.147 289.521C746.147 281.099 746.276 273.182 746.531 267.177C746.659 264.175 746.819 261.645 747.012 259.765C747.108 258.826 747.213 258.04 747.328 257.436C747.386 257.134 747.448 256.869 747.515 256.649C747.579 256.438 747.658 256.235 747.763 256.078C747.849 255.949 747.862 255.865 747.861 255.819C747.86 255.778 747.846 255.717 747.774 255.631C747.611 255.435 747.226 255.2 746.531 254.983C745.169 254.56 742.932 254.304 740.015 254.304H730.836L731.585 277.254L732.605 300.98L732.66 302.252L731.754 301.357L711.091 280.949C705.342 275.328 700.291 269.893 696.769 265.635C695.009 263.507 693.622 261.662 692.721 260.229C692.271 259.514 691.93 258.884 691.728 258.362C691.626 258.102 691.553 257.853 691.521 257.623C691.492 257.411 691.495 257.179 691.577 256.963L691.626 256.793C691.72 256.412 691.666 256.134 691.518 255.908C691.33 255.623 690.934 255.329 690.197 255.073C688.722 254.561 686.183 254.304 682.356 254.304H672.142V324.738H686.432Z" fill="white" stroke="white"/>
<path d="M794.61 324.738C796.71 324.738 798.4 324.69 799.738 324.576C801.083 324.462 802.041 324.283 802.693 324.037C803.342 323.792 803.615 323.509 803.723 323.229C803.837 322.932 803.82 322.499 803.58 321.838C803.156 320.704 803.104 319.078 803.365 317.411C803.627 315.74 804.217 313.959 805.146 312.491C805.731 311.324 806.368 310.361 807.229 309.591C808.098 308.812 809.167 308.254 810.579 307.855C813.369 307.068 817.588 306.88 824.46 306.88C828.158 306.88 831.043 306.911 833.329 307.056C835.611 307.2 837.331 307.459 838.687 307.928C840.059 308.402 841.053 309.09 841.883 310.07C842.598 310.915 843.181 311.965 843.787 313.243L844.049 313.805L844.054 313.816C844.833 315.634 845.419 317.584 845.713 319.252C845.86 320.085 845.937 320.86 845.924 321.521C845.911 322.164 845.813 322.766 845.554 323.199L845.536 323.229L845.516 323.255L845.491 323.293C845.508 323.317 845.548 323.365 845.642 323.432C845.943 323.646 846.539 323.876 847.437 324.081C849.204 324.484 851.905 324.738 855.074 324.738H866.007L850.29 292.807C845.822 283.871 841.864 275.378 839.085 268.894C837.696 265.652 836.598 262.906 835.879 260.854C835.52 259.829 835.252 258.967 835.09 258.299C835.009 257.965 834.951 257.669 834.923 257.42C834.897 257.185 834.89 256.937 834.949 256.729L834.955 256.709L834.962 256.689C835.102 256.315 835.054 256.063 834.875 255.842C834.66 255.577 834.204 255.295 833.375 255.049C831.729 254.561 828.922 254.304 824.715 254.304C820.239 254.304 817.379 254.499 815.771 254.984C814.964 255.228 814.578 255.515 814.416 255.784C814.27 256.026 814.239 256.372 814.464 256.935L814.463 256.936C814.551 257.149 814.567 257.403 814.558 257.64C814.548 257.895 814.506 258.194 814.441 258.53C814.311 259.203 814.074 260.069 813.747 261.096C813.091 263.151 812.057 265.899 810.731 269.141C808.079 275.627 804.248 284.121 799.907 293.057L784.691 324.738H794.61ZM823.439 297.675C820.621 297.675 818.049 297.547 816.173 297.32C815.239 297.208 814.456 297.068 813.896 296.9C813.621 296.818 813.368 296.719 813.174 296.595C813.004 296.486 812.734 296.264 812.734 295.899C812.734 295.715 812.8 295.473 812.873 295.243C812.953 294.99 813.069 294.675 813.212 294.31C813.499 293.577 813.91 292.62 814.405 291.517C815.397 289.308 816.739 286.495 818.145 283.685L823.503 272.97L823.932 272.111L824.39 272.955L829.234 281.88C830.523 284.199 831.68 286.771 832.547 288.954C833.407 291.121 834 292.952 834.138 293.776L834.145 293.816V293.858C834.144 295.234 832.939 296.172 831.188 296.756C829.391 297.355 826.778 297.675 823.439 297.675Z" fill="white" stroke="white"/>
<path d="M901.507 324.738C903.606 324.738 905.312 324.69 906.675 324.576C908.044 324.462 909.036 324.283 909.724 324.034C910.412 323.785 910.718 323.496 910.843 323.209C910.971 322.915 910.969 322.49 910.731 321.838C910.658 321.641 910.645 321.409 910.652 321.192C910.66 320.96 910.693 320.688 910.746 320.385C910.852 319.777 911.045 319 911.309 318.084C911.837 316.25 912.666 313.815 913.71 310.975C915.799 305.291 918.76 297.956 921.935 290.505C925.11 283.054 928.501 275.481 931.451 269.322C932.926 266.243 934.292 263.513 935.467 261.328C936.636 259.153 937.63 257.487 938.361 256.557L938.381 256.533C938.62 256.264 938.782 256.037 938.877 255.849C938.973 255.66 938.987 255.542 938.979 255.474C938.97 255.386 938.888 255.172 938.239 254.945C937.617 254.728 936.642 254.565 935.236 254.458C933.84 254.352 932.052 254.304 929.825 254.304C925.477 254.304 922.682 254.499 921.107 254.983C920.318 255.226 919.939 255.512 919.779 255.781C919.635 256.025 919.605 256.372 919.83 256.935L919.839 256.959L919.846 256.983C919.94 257.315 919.922 257.778 919.854 258.282C919.784 258.809 919.65 259.461 919.46 260.216C919.08 261.727 918.469 263.689 917.669 265.961C916.068 270.507 913.701 276.326 910.889 282.335L900.939 303.764L900.485 304.742L900.032 303.763L890.596 283.358C887.912 277.736 885.483 272.111 883.755 267.567C882.891 265.296 882.2 263.288 881.74 261.683C881.51 260.88 881.337 260.172 881.229 259.577C881.123 258.999 881.072 258.495 881.108 258.106V258.105C881.169 257.26 881.072 256.652 880.822 256.197C880.579 255.754 880.153 255.388 879.416 255.099C878.668 254.805 877.63 254.604 876.217 254.478C874.808 254.352 873.056 254.304 870.893 254.304H860.718L874.148 282.16C877.978 290.075 881.617 298.055 884.395 304.536C885.783 307.777 886.959 310.646 887.835 312.946C888.706 315.234 889.295 316.994 889.496 317.997C890.14 321.218 890.69 322.767 892.16 323.627C892.916 324.069 893.959 324.354 895.482 324.522C897.003 324.691 898.956 324.738 901.507 324.738Z" fill="white" stroke="white"/>
<path d="M1036.98 324.738H1046.15L1045.41 302.298C1045.15 296.04 1045.09 290.288 1045.18 286.098C1045.23 284.004 1045.32 282.29 1045.44 281.094C1045.51 280.499 1045.58 280.012 1045.67 279.666C1045.71 279.497 1045.77 279.331 1045.84 279.196C1045.89 279.104 1046.06 278.817 1046.42 278.816C1046.63 278.816 1046.84 278.906 1047.01 278.99C1047.19 279.084 1047.4 279.216 1047.63 279.375C1048.08 279.694 1048.65 280.155 1049.31 280.729C1050.64 281.881 1052.37 283.522 1054.36 285.49C1058.34 289.428 1063.38 294.696 1068.31 300.024C1073.24 305.353 1078.07 310.748 1081.63 314.94C1083.42 317.036 1084.89 318.836 1085.9 320.181C1086.4 320.851 1086.8 321.419 1087.07 321.856C1087.2 322.074 1087.31 322.273 1087.38 322.445C1087.41 322.531 1087.45 322.623 1087.47 322.715C1087.48 322.8 1087.5 322.927 1087.47 323.063L1087.46 323.097L1087.45 323.128L1087.44 323.157C1087.44 323.166 1087.44 323.175 1087.45 323.188C1087.47 323.232 1087.53 323.318 1087.69 323.429C1088.01 323.652 1088.57 323.882 1089.37 324.084C1090.94 324.485 1093.26 324.738 1095.91 324.738H1104.85V254.304H1090.56L1091.56 276.998V277.001C1091.82 283.646 1091.75 289.405 1091.47 293.447C1091.32 295.464 1091.12 297.074 1090.87 298.157C1090.74 298.691 1090.6 299.141 1090.42 299.45C1090.33 299.603 1090.2 299.767 1090.03 299.875C1089.82 299.998 1089.58 300.029 1089.35 299.936L1089.34 299.934C1089 299.795 1088.57 299.505 1088.08 299.126C1087.57 298.738 1086.96 298.228 1086.28 297.615C1084.9 296.39 1083.18 294.739 1081.25 292.805C1077.38 288.935 1072.63 283.914 1068.02 278.855C1063.41 273.797 1058.93 268.697 1055.6 264.666C1053.94 262.652 1052.56 260.898 1051.59 259.549C1051.11 258.875 1050.72 258.293 1050.46 257.824C1050.32 257.59 1050.21 257.375 1050.13 257.186C1050.06 257.007 1050 256.805 1050 256.61C1050 256.498 1049.91 256.261 1049.41 255.951C1048.93 255.655 1048.19 255.368 1047.19 255.118C1045.2 254.621 1042.31 254.304 1038.76 254.304C1035.2 254.304 1032.51 254.559 1030.85 254.989C1030.01 255.208 1029.51 255.454 1029.28 255.673C1029.17 255.772 1029.15 255.837 1029.15 255.865C1029.15 255.891 1029.15 255.958 1029.23 256.078C1029.33 256.235 1029.41 256.438 1029.48 256.649C1029.54 256.869 1029.61 257.134 1029.66 257.436C1029.78 258.04 1029.88 258.826 1029.98 259.765C1030.17 261.645 1030.33 264.175 1030.46 267.177C1030.72 273.182 1030.84 281.099 1030.84 289.521C1030.84 297.944 1030.72 305.86 1030.46 311.865C1030.33 314.867 1030.17 317.398 1029.98 319.278C1029.88 320.217 1029.78 321.003 1029.66 321.607C1029.61 321.909 1029.54 322.173 1029.48 322.393C1029.41 322.604 1029.33 322.808 1029.23 322.965C1029.14 323.094 1029.13 323.178 1029.13 323.224C1029.13 323.265 1029.15 323.326 1029.22 323.411C1029.38 323.607 1029.76 323.843 1030.46 324.06C1031.82 324.483 1034.06 324.738 1036.98 324.738Z" fill="white" stroke="white"/>
<path d="M1128.82 324.738C1130.92 324.738 1132.61 324.69 1133.95 324.576C1135.29 324.462 1136.25 324.283 1136.9 324.037C1137.55 323.792 1137.83 323.51 1137.93 323.229C1138.05 322.932 1138.03 322.499 1137.79 321.838C1137.37 320.704 1137.31 319.078 1137.58 317.411C1137.84 315.74 1138.43 313.959 1139.36 312.491C1139.94 311.324 1140.58 310.361 1141.44 309.59C1142.32 308.811 1143.4 308.253 1144.82 307.854C1147.64 307.067 1151.93 306.88 1158.93 306.88C1162.56 306.88 1165.41 306.912 1167.67 307.04C1169.92 307.168 1171.61 307.394 1172.91 307.795C1174.23 308.2 1175.16 308.789 1175.88 309.641C1176.59 310.478 1177.06 311.539 1177.51 312.827L1177.51 312.836L1177.52 312.846C1178.03 314.523 1178.48 316.393 1178.78 318.04C1179.06 319.662 1179.21 321.144 1179.06 322.004L1179.06 322.017L1179.06 322.03C1178.96 322.465 1179.05 322.795 1179.29 323.083C1179.56 323.399 1180.07 323.705 1180.89 323.964C1182.53 324.481 1185.21 324.738 1189.03 324.738H1199.19L1183.23 293.062L1183.22 293.059C1178.88 284.251 1174.99 275.822 1172.27 269.336C1170.92 266.095 1169.85 263.33 1169.17 261.242C1168.83 260.2 1168.58 259.314 1168.45 258.616C1168.38 258.268 1168.33 257.955 1168.32 257.688C1168.31 257.43 1168.32 257.167 1168.41 256.945L1168.41 256.935C1168.64 256.362 1168.62 256.005 1168.49 255.76C1168.36 255.5 1168.02 255.22 1167.29 254.98C1165.81 254.499 1163.15 254.304 1158.93 254.304C1156.51 254.304 1154.59 254.352 1153.09 254.489C1151.57 254.627 1150.51 254.853 1149.75 255.187C1149.02 255.512 1148.59 255.934 1148.33 256.491C1148.06 257.072 1147.94 257.845 1147.94 258.906C1147.94 259.3 1147.82 259.889 1147.63 260.605C1147.42 261.338 1147.13 262.254 1146.75 263.325C1146 265.47 1144.91 268.262 1143.57 271.503C1140.89 277.986 1137.18 286.286 1133.1 294.839L1133.1 294.841L1118.65 324.738H1128.82ZM1157.65 297.675C1154.83 297.675 1152.26 297.547 1150.38 297.32C1149.45 297.208 1148.67 297.068 1148.11 296.9C1147.83 296.818 1147.58 296.719 1147.38 296.595C1147.21 296.486 1146.94 296.264 1146.94 295.899C1146.94 295.715 1147.01 295.472 1147.08 295.242C1147.16 294.989 1147.28 294.671 1147.43 294.304C1147.72 293.567 1148.14 292.601 1148.65 291.481C1149.54 289.52 1150.73 287.072 1152.04 284.521L1152.61 283.422L1157.97 272.715L1158.44 271.772L1158.87 272.733L1163.46 282.937C1164.74 285.751 1165.89 288.502 1166.73 290.682C1167.14 291.771 1167.48 292.722 1167.72 293.469C1167.84 293.841 1167.93 294.169 1167.99 294.439C1168.05 294.681 1168.09 294.908 1168.1 295.092C1168.14 295.398 1168.04 295.674 1167.87 295.896C1167.7 296.118 1167.45 296.293 1167.17 296.435C1166.63 296.719 1165.84 296.946 1164.92 297.124C1163.06 297.483 1160.47 297.675 1157.65 297.675Z" fill="white" stroke="white"/>
<path d="M92.3862 439.401C92.4092 439.173 92.4358 438.872 92.4595 438.497C92.5217 437.512 92.5833 436.054 92.6431 434.172C92.7625 430.409 92.8736 424.967 92.9692 418.256C93.1605 404.833 93.2886 386.339 93.2886 366.059C93.2886 330.714 93.2245 312.175 92.5562 301.863C92.2218 296.705 91.7384 293.649 91.0542 291.593C90.3809 289.569 89.5099 288.502 88.3325 287.324C85.2849 284.277 82.9748 282.802 80.5552 282.654C78.1244 282.506 75.4422 283.687 71.6245 286.359L71.6196 286.363L71.1167 286.71C69.9904 287.502 69.1803 288.206 68.5435 289.534C67.7973 291.091 67.2756 293.537 66.9253 298.012C66.2257 306.948 66.2251 323.694 66.2251 356.874V423.695L79.0024 431.712L79.0015 431.713C82.5694 433.879 85.8795 435.851 88.3911 437.281C89.6485 437.997 90.7013 438.575 91.4839 438.973C91.8517 439.159 92.1539 439.302 92.3862 439.401Z" fill="white" stroke="white"/>
<path d="M134.657 474.622C134.713 474.396 134.773 474.07 134.833 473.637C134.98 472.576 135.124 470.963 135.262 468.833C135.536 464.577 135.783 458.303 135.99 450.364C136.405 434.489 136.659 411.979 136.659 385.704C136.659 341.942 136.596 319.318 135.896 306.803C135.545 300.543 135.037 296.851 134.312 294.32C133.594 291.818 132.662 290.44 131.406 288.808C128.394 284.917 125.194 282.927 121.975 282.687C118.758 282.446 115.385 283.942 112.001 287.325C110.826 288.501 109.955 289.566 109.281 291.668C108.596 293.805 108.112 297.021 107.777 302.5C107.109 313.451 107.045 333.267 107.045 371.162V449.779L119.896 461.874C123.467 465.189 126.969 468.373 129.736 470.759C131.121 471.952 132.316 472.942 133.241 473.646C133.704 473.999 134.093 474.275 134.399 474.469C134.499 474.532 134.585 474.582 134.657 474.622Z" fill="white" stroke="white"/>
<path d="M347.891 408.929C348.15 408.929 348.322 408.88 348.436 408.812C348.542 408.75 348.633 408.651 348.701 408.478C348.85 408.094 348.867 407.4 348.615 406.251C348.118 403.984 346.674 400.332 344.121 394.843L344.119 394.837C340.548 386.93 336.204 376.457 334.663 371.836C333.785 369.328 332.665 367.349 331.476 366.007C330.279 364.656 329.064 364.007 327.992 364.007C326.775 364.007 325.713 364.251 324.975 364.648C324.234 365.048 323.899 365.548 323.899 366.058C323.899 366.304 323.806 366.673 323.68 367.086C323.546 367.524 323.351 368.083 323.102 368.745C322.604 370.071 321.882 371.833 320.988 373.909C319.198 378.063 316.708 383.492 313.899 389.238H313.898C310.97 395.221 308.877 400.3 307.739 403.872C307.168 405.664 306.847 407.048 306.772 407.967C306.734 408.435 306.765 408.725 306.819 408.877C306.827 408.9 306.836 408.916 306.842 408.928C307.086 408.92 307.443 408.8 307.895 408.513C308.353 408.222 308.864 407.788 309.386 407.235C310.43 406.13 311.482 404.585 312.224 402.854L312.229 402.844C313.521 400.001 314.74 398.259 317.154 397.293C319.492 396.358 322.913 396.173 328.501 396.173C331.373 396.173 333.625 396.22 335.407 396.382C337.185 396.543 338.535 396.821 339.584 397.303C341.755 398.299 342.504 400.107 343.271 402.919L343.275 402.933L343.277 402.946C343.645 404.663 344.379 406.184 345.25 407.266C346.136 408.365 347.093 408.929 347.891 408.929ZM332.404 391.857C330.943 391.961 328.956 391.812 326.411 391.558L318.757 390.792L318.099 390.727L318.342 390.111L322.168 380.416L322.169 380.414C323.195 377.851 324.287 375.473 325.223 373.73C325.69 372.861 326.125 372.136 326.5 371.623C326.685 371.368 326.868 371.149 327.042 370.988C327.13 370.908 327.228 370.832 327.333 370.773C327.434 370.717 327.573 370.66 327.736 370.66C327.92 370.66 328.062 370.745 328.135 370.795C328.22 370.853 328.299 370.927 328.37 371.001C328.511 371.15 328.668 371.354 328.833 371.594C329.167 372.077 329.575 372.766 330.026 373.603C330.928 375.277 332.019 377.588 333.044 380.151C334.191 382.89 335.033 385.024 335.481 386.658C335.92 388.258 336.03 389.537 335.503 390.449C334.954 391.399 333.841 391.756 332.404 391.857Z" fill="white" stroke="white"/>
<path d="M373.658 408.929C381.909 408.929 387.701 407.465 391.427 404.479C395.128 401.512 396.884 396.964 396.884 390.55C396.884 384.57 394.587 379.876 390.353 376.661C386.1 373.433 379.843 371.66 371.873 371.66H360.133L360.381 390.288V408.929H373.658ZM363.718 375.763H375.189C378.282 375.763 381.379 376.084 383.936 376.635C385.215 376.91 386.368 377.245 387.323 377.629C388.268 378.01 389.059 378.455 389.575 378.971C390.562 379.958 391.354 381.721 391.903 383.721C392.457 385.741 392.782 388.081 392.782 390.295C392.782 395.693 391.758 399.4 388.931 401.716C386.137 404.005 381.701 404.826 375.189 404.826H363.718V375.763Z" fill="white" stroke="white"/>
<path d="M423.192 408.691C423.612 408.627 424.051 408.333 424.497 407.667C424.943 407 425.356 406.017 425.732 404.699L425.735 404.688L425.739 404.679C426.511 402.362 429.835 393.67 433.669 385.491C436.353 379.739 437.791 376.162 438.191 374.034C438.394 372.957 438.304 372.383 438.114 372.088C437.952 371.835 437.628 371.66 436.929 371.66C435.118 371.66 433.602 373.011 433.602 374.732C433.602 375.315 433.425 376.201 433.143 377.265C432.855 378.344 432.445 379.656 431.949 381.112C430.957 384.026 429.612 387.543 428.207 390.993V390.994L428.202 391.006L422.845 403.251L422.408 404.25L421.936 403.268L415.813 390.511L415.811 390.505C414.149 386.926 412.613 383.343 411.492 380.429C410.932 378.972 410.473 377.676 410.153 376.628C409.84 375.602 409.641 374.753 409.641 374.222C409.64 373.653 409.303 373.02 408.652 372.511C408.008 372.007 407.097 371.66 406.059 371.66C404.971 371.66 404.192 371.904 403.764 372.207C403.552 372.356 403.449 372.502 403.409 372.617C403.373 372.721 403.374 372.836 403.444 372.978L403.452 372.994L403.459 373.011C410.48 389.989 415.498 400.517 419.123 405.466C420.027 406.7 420.824 407.559 421.522 408.083C422.223 408.609 422.767 408.756 423.192 408.691Z" fill="white" stroke="white"/>
<path d="M465.758 408.929C472.444 408.929 477.536 407.289 480.954 404.21C484.362 401.139 486.178 396.57 486.178 390.55C486.178 379.911 476.766 371.66 464.993 371.66C462.77 371.66 460.021 372.218 457.346 373.162C454.672 374.106 452.11 375.422 450.252 376.908L450.248 376.912L449.909 377.182C442.875 382.882 441.803 390.708 444.906 397.157C448.068 403.729 455.6 408.929 465.758 408.929ZM475.47 403.725C463.424 411.581 447.91 403.728 447.91 389.274C447.91 383.511 452.069 379.155 457.708 377.069C463.352 374.981 470.578 375.114 476.956 378.368L476.969 378.376C480.911 380.551 482.59 385.577 482.297 390.61C482.004 395.661 479.723 400.933 475.472 403.724L475.47 403.725Z" fill="white" stroke="white"/>
<path d="M516.271 408.929C522.632 408.929 526.905 408.096 529.582 406.332C532.205 404.603 533.375 401.921 533.375 397.948V397.926C533.439 396.527 533.42 395.48 533.258 394.684C533.099 393.904 532.811 393.403 532.356 393.049C531.884 392.681 531.173 392.427 530.074 392.272C528.979 392.118 527.558 392.07 525.711 392.07C523.447 392.07 521.384 392.322 519.9 392.693C519.155 392.88 518.58 393.09 518.204 393.299C518.016 393.404 517.899 393.495 517.836 393.565C517.809 393.595 517.798 393.615 517.793 393.625C517.797 393.754 517.86 393.909 518.069 394.09C518.292 394.282 518.647 394.471 519.141 394.636C520.122 394.963 521.527 395.152 523.15 395.152C525.182 395.088 526.736 395.46 527.766 396.174C528.823 396.906 529.293 397.98 529.141 399.16C528.993 400.308 528.267 401.494 527.081 402.555C525.889 403.621 524.2 404.591 522.045 405.31H522.046C511.344 408.964 500.507 402.974 499.446 392.643C498.927 387.707 500.211 382.686 502.906 379.991C504.197 378.701 506.099 377.728 508.253 377.054C510.414 376.377 512.866 375.988 515.295 375.891C517.723 375.794 520.146 375.988 522.247 376.486C524.337 376.983 526.162 377.793 527.34 378.971C528.041 379.672 528.912 380.133 529.706 380.303C530.516 380.476 531.14 380.332 531.48 379.991C531.815 379.656 531.946 379.322 531.951 378.99C531.956 378.645 531.825 378.243 531.521 377.788C530.909 376.869 529.682 375.871 528.019 374.945C524.705 373.101 519.877 371.66 515.506 371.66C509.774 371.66 505.059 373.646 501.073 377.881L501.066 377.889L501.059 377.896C494.567 384.262 493.606 392.006 496.598 398.144C499.596 404.294 506.612 408.929 516.271 408.929Z" fill="white" stroke="white"/>
<path d="M574.695 408.929C574.702 408.929 574.707 408.929 574.71 408.929C574.713 408.926 574.74 408.901 574.772 408.819C574.843 408.639 574.888 408.315 574.867 407.815C574.827 406.832 574.55 405.389 574.08 403.613C573.143 400.074 571.469 395.336 569.544 390.578C567.619 385.822 565.451 381.063 563.528 377.484C562.566 375.693 561.672 374.211 560.909 373.175C560.527 372.656 560.188 372.264 559.9 372.003C559.625 371.754 559.454 371.681 559.377 371.665C559.361 371.67 559.333 371.68 559.292 371.702C559.21 371.746 559.102 371.82 558.968 371.935C558.699 372.164 558.366 372.517 557.979 372.994C557.205 373.946 556.254 375.337 555.19 377.066C553.066 380.522 550.524 385.289 548.106 390.505L548.105 390.506L547.139 392.608C544.969 397.404 543.402 401.411 542.518 404.312C542.01 405.978 541.739 407.246 541.694 408.08C541.672 408.505 541.712 408.757 541.765 408.883C541.774 408.906 541.783 408.92 541.789 408.929C542.33 408.926 543.094 408.494 543.861 407.604C544.516 406.845 545.108 405.824 545.489 404.688L545.64 404.194C545.905 403.138 546.278 402.241 546.846 401.502C547.419 400.755 548.171 400.195 549.148 399.783C551.071 398.974 553.91 398.724 558.112 398.724C562.315 398.724 565.154 398.974 567.076 399.783C568.054 400.195 568.806 400.755 569.38 401.502C569.948 402.241 570.32 403.138 570.585 404.195L570.586 404.194C570.949 405.527 571.615 406.732 572.389 407.596C573.176 408.474 574.008 408.929 574.695 408.929ZM558.112 394.621C556.401 394.621 555.054 394.607 554.062 394.461C553.086 394.318 552.286 394.026 551.876 393.32C551.481 392.64 551.551 391.737 551.815 390.665C552.019 389.841 552.363 388.829 552.817 387.597L553.308 386.29C554.081 384.101 554.985 382.162 555.799 380.763C556.205 380.064 556.597 379.485 556.946 379.075C557.12 378.871 557.296 378.695 557.469 378.565C557.627 378.446 557.852 378.315 558.112 378.314C558.373 378.314 558.597 378.446 558.756 378.565C558.928 378.695 559.104 378.871 559.278 379.075C559.628 379.485 560.019 380.064 560.426 380.763C561.239 382.162 562.144 384.101 562.917 386.29C563.616 388.134 564.139 389.566 564.41 390.665C564.675 391.737 564.743 392.64 564.349 393.32C563.939 394.026 563.138 394.318 562.163 394.461C561.171 394.607 559.824 394.621 558.112 394.621Z" fill="white" stroke="white"/>
<path d="M598.421 408.929C606.414 408.929 612.145 407.467 615.874 404.509C619.577 401.571 621.393 397.083 621.393 390.805C621.393 384.084 620.183 379.809 617.002 377.021C613.99 374.382 609.115 372.987 601.479 372.298L599.918 372.17L585.4 371.187V408.929H598.421ZM590.778 375.763H600.972C603.687 375.763 606.469 376.085 608.805 376.637C609.973 376.912 611.039 377.248 611.933 377.633C612.821 378.015 613.572 378.46 614.083 378.971C615.07 379.958 615.863 381.721 616.412 383.721C616.965 385.741 617.291 388.082 617.291 390.295C617.29 395.569 616.265 399.262 613.614 401.607C610.98 403.937 606.862 404.826 600.972 404.826H590.778V375.763Z" fill="white" stroke="white"/>
<path d="M663.988 408.929C664.197 408.929 664.315 408.88 664.387 408.825C664.457 408.771 664.536 408.669 664.588 408.459C664.699 408.01 664.65 407.23 664.334 406.015C663.71 403.613 662.136 399.826 659.457 394.341V394.34C657.41 390.119 655.555 385.832 654.21 382.342C653.538 380.597 652.991 379.047 652.611 377.8C652.239 376.575 652.008 375.582 652.008 374.987C652.008 374.163 651.543 373.341 650.707 372.707C649.874 372.075 648.705 371.66 647.405 371.66C646.105 371.66 644.938 372.075 644.104 372.707C643.268 373.341 642.804 374.163 642.804 374.987C642.804 375.649 642.555 376.674 642.157 377.914C641.753 379.175 641.174 380.719 640.47 382.447C639.061 385.904 637.143 390.125 635.1 394.34L635.097 394.345L634.099 396.366C631.896 400.885 630.575 404.04 630.03 406.111C629.714 407.312 629.687 408.053 629.816 408.466C629.875 408.653 629.96 408.752 630.053 408.812C630.153 408.878 630.312 408.929 630.567 408.929C631.264 408.929 632.163 408.465 633.015 407.583C633.799 406.77 634.483 405.662 634.861 404.44L634.933 404.194C635.198 403.138 635.57 402.244 636.128 401.506C636.692 400.76 637.425 400.199 638.372 399.786C640.233 398.974 642.946 398.724 646.896 398.724C650.973 398.724 653.746 398.974 655.668 399.783C656.644 400.194 657.407 400.752 658.01 401.491C658.609 402.226 659.033 403.119 659.363 404.177L659.366 404.186L659.368 404.194C659.728 405.513 660.449 406.712 661.312 407.576C662.185 408.448 663.149 408.929 663.988 408.929ZM647.405 394.621C645.348 394.621 643.407 394.493 641.97 394.265C641.256 394.151 640.64 394.009 640.192 393.834C639.971 393.748 639.759 393.641 639.595 393.506C639.433 393.373 639.252 393.153 639.252 392.846C639.252 392.534 639.369 392.076 639.529 391.577C639.696 391.056 639.934 390.419 640.217 389.714C640.784 388.302 641.546 386.594 642.33 384.945C643.114 383.297 643.925 381.701 644.59 380.512C644.921 379.919 645.222 379.417 645.469 379.06C645.591 378.883 645.711 378.726 645.821 378.608C645.876 378.551 645.941 378.489 646.015 378.438C646.076 378.396 646.208 378.315 646.385 378.314C646.543 378.314 646.672 378.375 646.75 378.42C646.835 378.469 646.913 378.532 646.982 378.595C647.121 378.721 647.271 378.892 647.428 379.09C647.743 379.489 648.129 380.058 648.562 380.749C649.433 382.135 650.523 384.06 651.674 386.234L655.756 393.886L656.147 394.621H647.405Z" fill="white" stroke="white"/>
</svg>
