<svg width="1057" height="732" viewBox="0 0 1057 732" fill="none" xmlns="http://www.w3.org/2000/svg">
<path d="M377.749 10.5748C375.234 23.1544 368.631 29.7587 353.852 33.5325L342.847 36.6774L357.311 42.9672C367.058 47.3701 372.718 52.0874 374.919 58.3772C376.806 63.409 379.321 70.3278 380.579 73.7872C382.78 79.1335 383.409 78.19 385.924 68.4409C389.383 55.5468 404.161 40.7658 413.909 40.7658C423.342 40.7658 420.826 35.4195 410.45 33.5325C398.502 31.0166 388.754 21.2674 386.239 9.31685C384.038 -3.26273 380.265 -2.63374 377.749 10.5748Z" fill="#395963"/>
<path d="M330.27 95.8009C307.002 103.978 290.966 132.282 295.682 156.812C298.198 169.706 317.064 190.148 329.641 193.293C343.161 196.752 358.254 192.349 368.002 182.6C385.924 163.731 375.862 131.967 351.966 131.967C339.703 131.967 334.043 137.943 335.615 149.893C336.558 157.441 337.816 158.699 346.935 158.699C358.883 158.699 360.141 164.36 349.136 171.593C329.326 184.487 308.259 155.554 319.893 130.395C327.125 114.67 334.986 113.098 410.45 113.098H479.625V130.395V147.692H435.604H391.584V158.699V169.706H435.604H479.625L480.254 294.558C480.568 363.431 481.197 422.555 481.512 426.015C481.826 429.474 482.14 441.11 482.455 452.117L482.769 471.616L503.207 455.577L523.645 439.538V325.378C523.645 203.356 523.96 200.84 539.367 205.872C545.656 207.759 545.656 209.646 545.656 316.258C545.656 375.696 546.599 424.442 547.542 424.442C548.486 424.442 555.403 420.039 563.264 415.008L577.099 405.258V298.332V191.406L586.532 186.059C593.135 182.6 595.965 178.512 595.336 174.423C594.393 168.448 591.563 168.133 538.738 167.19C485.285 166.561 482.769 166.247 482.769 160.271C482.769 154.296 484.97 153.981 530.249 153.981C556.032 153.981 583.702 152.409 590.934 150.522C609.485 145.805 625.836 131.653 632.125 114.67C641.872 89.5111 651.934 91.0836 488.429 91.0836C371.46 91.3981 340.332 92.3416 330.27 95.8009Z" fill="#395963"/>
<path d="M382.78 199.897C375.862 204.614 375.862 205.558 375.862 287.325V370.036L391.898 380.099C400.702 385.446 408.249 389.849 409.192 389.849C409.821 389.849 410.45 348.651 410.45 298.647C410.45 211.533 410.135 207.13 404.161 201.155C396.615 193.607 392.213 193.293 382.78 199.897Z" fill="#395963"/>
<path d="M432.46 201.155C426.486 207.131 426.172 211.534 426.172 304.937V402.114L442.208 417.21C451.012 425.386 459.501 432.934 461.074 433.249C462.646 433.878 463.903 387.648 463.903 322.863C463.903 214.993 463.589 211.219 457.3 203.042C449.754 193.293 440.95 192.664 432.46 201.155Z" fill="#395963"/>
<path d="M43.1835 600.979L62.6268 557.902C63.4504 556.076 63.8622 554.662 63.8622 553.659C63.8622 552.119 62.6805 551.117 60.3173 550.651V548.933H85.4003V550.651C83.8247 550.866 82.7326 551.314 82.1239 551.994C81.5152 552.674 80.4589 554.644 78.955 557.902L53.5497 612.741C52.4755 615.069 51.9384 616.59 51.9384 617.307C51.9384 619.133 53.0663 620.207 55.3221 620.529V622.248H30.078V620.529C32.3339 620.207 33.4618 619.115 33.4618 617.253C33.4618 616.573 32.9247 615.069 31.8505 612.741L6.44519 557.902C4.94128 554.644 3.88497 552.674 3.27625 551.994C2.66752 551.314 1.5754 550.866 -0.00012207 550.651V548.933H26.0497V550.651C23.6864 551.117 22.5048 552.119 22.5048 553.659C22.5048 554.662 22.9165 556.076 23.7401 557.902L43.1835 600.979ZM132.344 591.579V616.608C132.344 617.718 132.594 618.56 133.096 619.133C133.633 619.706 134.546 620.171 135.835 620.529V622.248H112.793V620.529C114.082 620.171 114.995 619.706 115.532 619.133C116.069 618.56 116.338 617.718 116.338 616.608V591.579L92.6512 558.225C90.6102 555.36 88.9989 553.444 87.8173 552.478C86.6714 551.475 85.2928 550.866 83.6815 550.651V548.933H112.632V550.651C110.233 551.045 109.033 552.155 109.033 553.981C109.033 554.626 109.767 556.04 111.235 558.225L124.448 577.883L138.037 558.225C139.505 556.112 140.239 554.68 140.239 553.928C140.239 553.104 139.917 552.406 139.272 551.833C138.628 551.224 137.751 550.83 136.641 550.651V548.933H165V550.651C163.389 550.866 161.992 551.475 160.81 552.478C159.665 553.444 158.071 555.36 156.03 558.225L132.344 591.579ZM206.357 600.979L225.801 557.902C226.624 556.076 227.036 554.662 227.036 553.659C227.036 552.119 225.854 551.117 223.491 550.651V548.933H248.574V550.651C246.999 550.866 245.906 551.314 245.298 551.994C244.689 552.674 243.633 554.644 242.129 557.902L216.724 612.741C215.649 615.069 215.112 616.59 215.112 617.307C215.112 619.133 216.24 620.207 218.496 620.529V622.248H193.252V620.529C195.508 620.207 196.636 619.115 196.636 617.253C196.636 616.573 196.099 615.069 195.024 612.741L169.619 557.902C168.115 554.644 167.059 552.674 166.45 551.994C165.841 551.314 164.749 550.866 163.174 550.651V548.933H189.224V550.651C186.86 551.117 185.679 552.119 185.679 553.659C185.679 554.662 186.09 556.076 186.914 557.902L206.357 600.979ZM258.349 616.608V554.519C258.349 553.444 258.099 552.621 257.598 552.048C257.096 551.475 256.201 551.009 254.912 550.651V548.933H277.793V550.651C276.504 550.974 275.609 551.439 275.107 552.048C274.606 552.621 274.355 553.444 274.355 554.519V616.608C274.355 617.718 274.606 618.578 275.107 619.187C275.644 619.759 276.54 620.207 277.793 620.529V622.248H254.912V620.529C256.201 620.171 257.096 619.706 257.598 619.133C258.099 618.56 258.349 617.718 258.349 616.608ZM344.717 603.557H311.416L306.474 613.869C305.794 615.301 305.454 616.429 305.454 617.253C305.454 618.828 306.654 619.921 309.053 620.529V622.248H284.775V620.529C286.208 620.243 287.3 619.742 288.052 619.025C288.804 618.309 289.663 616.913 290.63 614.836L317.593 558.493C318.452 556.703 318.882 555.271 318.882 554.196C318.882 552.549 317.843 551.368 315.766 550.651V548.933H341.763V550.651C339.65 551.26 338.594 552.316 338.594 553.82C338.594 554.859 338.934 556.04 339.614 557.365L367.544 613.869C368.725 616.268 369.764 617.915 370.659 618.811C371.554 619.67 372.754 620.243 374.258 620.529V622.248H347.295V620.529C349.658 620.135 350.84 619.025 350.84 617.199C350.84 616.447 350.482 615.337 349.766 613.869L344.717 603.557ZM340.098 593.513L328.227 567.409L316.196 593.513H340.098ZM398.589 572.028V616.608C398.589 617.718 398.839 618.56 399.341 619.133C399.842 619.706 400.737 620.171 402.026 620.529V622.248H380.488V620.529C381.777 620.171 382.672 619.706 383.174 619.133C383.675 618.56 383.926 617.718 383.926 616.608V554.519C383.926 553.444 383.675 552.621 383.174 552.048C382.672 551.475 381.777 551.009 380.488 550.651V548.933H405.41V550.651C403.87 551.045 403.1 551.869 403.1 553.122C403.1 553.981 403.602 554.93 404.604 555.969L445.049 598.024V554.519C445.049 553.444 444.798 552.621 444.297 552.048C443.795 551.475 442.9 551.009 441.611 550.651V548.933H463.149V550.651C461.86 551.009 460.965 551.475 460.464 552.048C459.962 552.621 459.712 553.444 459.712 554.519V616.608C459.712 617.718 459.962 618.56 460.464 619.133C460.965 619.706 461.86 620.171 463.149 620.529V622.248H440.054V620.529C441.557 620.207 442.309 619.437 442.309 618.22C442.309 617.504 441.432 616.25 439.678 614.46L398.589 572.028ZM557.627 603.557H524.326L519.385 613.869C518.704 615.301 518.364 616.429 518.364 617.253C518.364 618.828 519.564 619.921 521.963 620.529V622.248H497.685V620.529C499.118 620.243 500.21 619.742 500.962 619.025C501.714 618.309 502.573 616.913 503.54 614.836L530.503 558.493C531.362 556.703 531.792 555.271 531.792 554.196C531.792 552.549 530.753 551.368 528.677 550.651V548.933H554.673V550.651C552.56 551.26 551.504 552.316 551.504 553.82C551.504 554.859 551.844 556.04 552.524 557.365L580.454 613.869C581.636 616.268 582.674 617.915 583.569 618.811C584.464 619.67 585.664 620.243 587.168 620.529V622.248H560.205V620.529C562.568 620.135 563.75 619.025 563.75 617.199C563.75 616.447 563.392 615.337 562.676 613.869L557.627 603.557ZM553.008 593.513L541.138 567.409L529.106 593.513H553.008ZM620.146 600.979L639.59 557.902C640.413 556.076 640.825 554.662 640.825 553.659C640.825 552.119 639.643 551.117 637.28 550.651V548.933H662.363V550.651C660.788 550.866 659.696 551.314 659.087 551.994C658.478 552.674 657.422 554.644 655.918 557.902L630.513 612.741C629.438 615.069 628.901 616.59 628.901 617.307C628.901 619.133 630.029 620.207 632.285 620.529V622.248H607.041V620.529C609.297 620.207 610.425 619.115 610.425 617.253C610.425 616.573 609.888 615.069 608.813 612.741L583.408 557.902C581.904 554.644 580.848 552.674 580.239 551.994C579.63 551.314 578.538 550.866 576.963 550.651V548.933H603.013V550.651C600.649 551.117 599.468 552.119 599.468 553.659C599.468 554.662 599.879 556.076 600.703 557.902L620.146 600.979ZM688.144 590.075V610.163H735.303C736.377 610.163 737.2 609.912 737.773 609.411C738.346 608.91 738.812 608.015 739.17 606.726H740.889V625.686H739.17C738.812 624.396 738.346 623.501 737.773 623C737.2 622.499 736.377 622.248 735.303 622.248H668.701V620.529C669.99 620.171 670.885 619.706 671.387 619.133C671.888 618.56 672.139 617.718 672.139 616.608V554.572C672.139 553.462 671.888 552.621 671.387 552.048C670.885 551.475 669.99 551.009 668.701 550.651V548.933H734.014C735.088 548.933 735.911 548.682 736.484 548.181C737.057 547.644 737.523 546.73 737.881 545.441H739.599V564.401H737.881C737.523 563.148 737.057 562.271 736.484 561.77C735.911 561.268 735.088 561.018 734.014 561.018H688.144V578.42H717.9C718.974 578.42 719.798 578.169 720.371 577.668C720.944 577.167 721.409 576.271 721.767 574.982H723.486V593.513H721.767C721.409 592.259 720.944 591.382 720.371 590.881C719.798 590.344 718.974 590.075 717.9 590.075H688.144ZM770.376 572.028V616.608C770.376 617.718 770.627 618.56 771.128 619.133C771.629 619.706 772.524 620.171 773.813 620.529V622.248H752.275V620.529C753.564 620.171 754.46 619.706 754.961 619.133C755.462 618.56 755.713 617.718 755.713 616.608V554.519C755.713 553.444 755.462 552.621 754.961 552.048C754.46 551.475 753.564 551.009 752.275 550.651V548.933H777.197V550.651C775.657 551.045 774.888 551.869 774.888 553.122C774.888 553.981 775.389 554.93 776.391 555.969L816.836 598.024V554.519C816.836 553.444 816.585 552.621 816.084 552.048C815.583 551.475 814.687 551.009 813.398 550.651V548.933H834.936V550.651C833.647 551.009 832.752 551.475 832.251 552.048C831.75 552.621 831.499 553.444 831.499 554.519V616.608C831.499 617.718 831.75 618.56 832.251 619.133C832.752 619.706 833.647 620.171 834.936 620.529V622.248H811.841V620.529C813.345 620.207 814.097 619.437 814.097 618.22C814.097 617.504 813.219 616.25 811.465 614.46L770.376 572.028ZM903.096 603.557H869.795L864.853 613.869C864.173 615.301 863.833 616.429 863.833 617.253C863.833 618.828 865.032 619.921 867.432 620.529V622.248H843.154V620.529C844.586 620.243 845.679 619.742 846.431 619.025C847.182 618.309 848.042 616.913 849.009 614.836L875.972 558.493C876.831 556.703 877.261 555.271 877.261 554.196C877.261 552.549 876.222 551.368 874.145 550.651V548.933H900.141V550.651C898.029 551.26 896.973 552.316 896.973 553.82C896.973 554.859 897.313 556.04 897.993 557.365L925.923 613.869C927.104 616.268 928.143 617.915 929.038 618.811C929.933 619.67 931.133 620.243 932.637 620.529V622.248H905.674V620.529C908.037 620.135 909.219 619.025 909.219 617.199C909.219 616.447 908.861 615.337 908.144 613.869L903.096 603.557ZM898.476 593.513L886.606 567.409L874.575 593.513H898.476Z" fill="#395963"/>
<path d="M301.899 718.972H279.055L275.305 727.065C274.951 727.836 274.774 728.378 274.774 728.69C274.774 729.315 275.389 729.732 276.618 729.94V730.94H267.118V729.94C267.972 729.795 268.618 729.482 269.055 729.003C269.514 728.524 270.107 727.482 270.837 725.878L286.462 692.159C286.837 691.347 287.024 690.795 287.024 690.503C287.024 689.961 286.514 689.555 285.493 689.284V688.284H295.868V689.284C294.847 689.618 294.337 690.055 294.337 690.597C294.337 690.826 294.524 691.347 294.899 692.159L309.868 724.659C310.972 727.055 311.701 728.461 312.055 728.878C312.41 729.295 313.18 729.649 314.368 729.94V730.94H304.243V729.94C305.451 729.774 306.055 729.315 306.055 728.565C306.055 728.232 305.826 727.586 305.368 726.628L301.899 718.972ZM300.055 714.909L290.462 693.847L280.899 714.909H300.055ZM320.805 727.69V691.534C320.805 690.909 320.66 690.43 320.368 690.097C320.076 689.763 319.555 689.493 318.805 689.284V688.284H341.305C346.41 688.284 350.316 688.993 353.024 690.409C356.441 692.18 359.045 694.909 360.837 698.597C362.399 701.826 363.18 705.493 363.18 709.597C363.18 714.451 362.128 718.638 360.024 722.159C358.128 725.284 355.722 727.534 352.805 728.909C349.91 730.263 346.076 730.94 341.305 730.94H318.805V729.94C319.555 729.732 320.076 729.461 320.368 729.128C320.66 728.795 320.805 728.315 320.805 727.69ZM325.712 726.878H341.118C345.639 726.878 348.993 726.18 351.18 724.784C353.764 723.118 355.66 720.565 356.868 717.128C357.66 714.836 358.055 712.326 358.055 709.597C358.055 704.638 356.795 700.534 354.274 697.284C352.878 695.493 351.18 694.222 349.18 693.472C347.18 692.722 344.493 692.347 341.118 692.347H325.712V726.878ZM387.962 725.378L401.774 693.784C402.357 692.493 402.649 691.534 402.649 690.909C402.649 690.118 402.045 689.576 400.837 689.284V688.284H410.493V689.284C409.514 689.576 408.837 689.961 408.462 690.44C408.107 690.92 407.43 692.305 406.43 694.597L392.68 725.597C392.16 726.826 391.899 727.711 391.899 728.253C391.899 729.128 392.493 729.69 393.68 729.94V730.94H381.805V729.94C382.993 729.69 383.587 729.107 383.587 728.19C383.587 727.69 383.316 726.826 382.774 725.597L368.774 693.659C368.003 691.93 367.43 690.836 367.055 690.378C366.68 689.92 366.024 689.555 365.087 689.284V688.284H375.274V689.284C374.045 689.576 373.43 690.118 373.43 690.909C373.43 691.618 373.701 692.576 374.243 693.784L387.962 725.378ZM437.555 687.534C445.076 687.534 451.139 689.503 455.743 693.44C458.326 695.628 460.264 698.305 461.555 701.472C462.618 704.076 463.149 706.878 463.149 709.878C463.149 713.94 461.993 717.743 459.68 721.284C457.139 725.201 453.607 728.024 449.087 729.753C445.712 731.045 441.889 731.69 437.618 731.69C430.139 731.69 424.107 729.722 419.524 725.784C416.962 723.576 415.024 720.899 413.712 717.753C412.649 715.17 412.118 712.451 412.118 709.597C412.118 705.368 413.264 701.472 415.555 697.909C418.055 694.055 421.597 691.243 426.18 689.472C429.389 688.243 433.18 687.597 437.555 687.534ZM437.555 691.815C431.16 691.815 426.097 693.607 422.368 697.19C418.951 700.482 417.243 704.618 417.243 709.597C417.243 714.597 418.951 718.743 422.368 722.034C426.076 725.618 431.16 727.409 437.618 727.409C444.097 727.409 449.201 725.618 452.93 722.034C456.326 718.743 458.024 714.68 458.024 709.847C458.024 704.618 456.326 700.399 452.93 697.19C450.889 695.274 448.701 693.93 446.368 693.159C443.785 692.284 440.847 691.836 437.555 691.815ZM516.493 692.378L511.712 700.003L510.899 699.44C511.274 698.815 511.462 698.347 511.462 698.034C511.462 697.388 510.347 696.472 508.118 695.284C503.826 692.951 499.43 691.784 494.93 691.784C489.701 691.784 485.295 693.253 481.712 696.19C477.607 699.524 475.555 704.024 475.555 709.69C475.555 715.211 477.514 719.607 481.43 722.878C485.035 725.899 489.639 727.409 495.243 727.409C498.201 727.409 501.014 726.951 503.68 726.034C506.368 725.097 508.628 723.795 510.462 722.128V714.253H500.368C499.493 714.253 498.868 714.388 498.493 714.659C498.139 714.93 497.868 715.461 497.68 716.253H496.68V708.19H497.68C497.868 708.982 498.139 709.513 498.493 709.784C498.868 710.055 499.493 710.19 500.368 710.19H517.149V711.19C516.357 711.399 515.826 711.68 515.555 712.034C515.285 712.388 515.149 713.003 515.149 713.878V719.409C515.149 720.284 515.285 720.899 515.555 721.253C515.826 721.607 516.357 721.888 517.149 722.097V722.972C514.795 725.076 512.576 726.711 510.493 727.878C505.972 730.42 500.816 731.69 495.024 731.69C487.899 731.69 482.139 729.763 477.743 725.909C475.576 724.013 473.857 721.743 472.587 719.097C471.149 716.076 470.43 712.888 470.43 709.534C470.43 704.722 471.837 700.451 474.649 696.722C477.253 693.284 480.753 690.774 485.149 689.19C488.253 688.086 491.587 687.534 495.149 687.534C498.274 687.534 501.17 687.909 503.837 688.659C506.503 689.409 509.378 690.649 512.462 692.378C513.357 692.878 513.91 693.128 514.118 693.128C514.451 693.128 514.962 692.69 515.649 691.815L516.493 692.378ZM554.712 718.972H531.868L528.118 727.065C527.764 727.836 527.587 728.378 527.587 728.69C527.587 729.315 528.201 729.732 529.43 729.94V730.94H519.93V729.94C520.785 729.795 521.43 729.482 521.868 729.003C522.326 728.524 522.92 727.482 523.649 725.878L539.274 692.159C539.649 691.347 539.837 690.795 539.837 690.503C539.837 689.961 539.326 689.555 538.305 689.284V688.284H548.68V689.284C547.66 689.618 547.149 690.055 547.149 690.597C547.149 690.826 547.337 691.347 547.712 692.159L562.68 724.659C563.785 727.055 564.514 728.461 564.868 728.878C565.222 729.295 565.993 729.649 567.18 729.94V730.94H557.055V729.94C558.264 729.774 558.868 729.315 558.868 728.565C558.868 728.232 558.639 727.586 558.18 726.628L554.712 718.972ZM552.868 714.909L543.274 693.847L533.712 714.909H552.868ZM573.618 727.69V691.534C573.618 690.909 573.472 690.43 573.18 690.097C572.889 689.763 572.368 689.493 571.618 689.284V688.284H594.118C599.222 688.284 603.128 688.993 605.837 690.409C609.253 692.18 611.858 694.909 613.649 698.597C615.212 701.826 615.993 705.493 615.993 709.597C615.993 714.451 614.941 718.638 612.837 722.159C610.941 725.284 608.535 727.534 605.618 728.909C602.722 730.263 598.889 730.94 594.118 730.94H571.618V729.94C572.368 729.732 572.889 729.461 573.18 729.128C573.472 728.795 573.618 728.315 573.618 727.69ZM578.524 726.878H593.93C598.451 726.878 601.805 726.18 603.993 724.784C606.576 723.118 608.472 720.565 609.68 717.128C610.472 714.836 610.868 712.326 610.868 709.597C610.868 704.638 609.608 700.534 607.087 697.284C605.691 695.493 603.993 694.222 601.993 693.472C599.993 692.722 597.305 692.347 593.93 692.347H578.524V726.878ZM652.337 718.972H629.493L625.743 727.065C625.389 727.836 625.212 728.378 625.212 728.69C625.212 729.315 625.826 729.732 627.055 729.94V730.94H617.555V729.94C618.41 729.795 619.055 729.482 619.493 729.003C619.951 728.524 620.545 727.482 621.274 725.878L636.899 692.159C637.274 691.347 637.462 690.795 637.462 690.503C637.462 689.961 636.951 689.555 635.93 689.284V688.284H646.305V689.284C645.285 689.618 644.774 690.055 644.774 690.597C644.774 690.826 644.962 691.347 645.337 692.159L660.305 724.659C661.41 727.055 662.139 728.461 662.493 728.878C662.847 729.295 663.618 729.649 664.805 729.94V730.94H654.68V729.94C655.889 729.774 656.493 729.315 656.493 728.565C656.493 728.232 656.264 727.586 655.805 726.628L652.337 718.972ZM650.493 714.909L640.899 693.847L631.337 714.909H650.493Z" fill="#395963"/>
</svg>
