<svg width="1200" height="383" viewBox="0 124 1200 383" fill="none" xmlns="http://www.w3.org/2000/svg">
<path d="M67.2559 132.366C65.2149 142.57 59.8574 147.928 47.8666 150.989L38.9373 153.541L50.673 158.643C58.5818 162.215 63.174 166.042 64.9598 171.144C66.4906 175.226 68.5315 180.839 69.552 183.645C71.3379 187.982 71.8481 187.217 73.8891 179.308C76.6955 168.848 88.6862 156.857 96.595 156.857C104.249 156.857 102.208 152.52 93.7887 150.989C84.094 148.948 76.1852 141.04 74.1442 131.345C72.3584 121.14 69.2969 121.65 67.2559 132.366Z" fill="#b8935a"/>
<path d="M28.7328 201.505C9.85378 208.138 -3.15747 231.099 0.669366 250.998C2.71035 261.458 18.0177 278.041 28.2226 280.593C39.1929 283.399 51.4388 279.827 59.3476 271.918C73.8895 256.611 65.7256 230.844 46.3363 230.844C36.3865 230.844 31.7943 235.691 33.0699 245.386C33.8353 251.509 34.8558 252.529 42.2543 252.529C51.949 252.529 52.9695 257.121 44.0402 262.989C27.9675 273.449 10.8743 249.978 20.3138 229.568C26.1816 216.812 32.5597 215.536 93.7891 215.536H149.916V229.568V243.6H114.199H78.4817V252.529V261.458H114.199H149.916L150.426 362.742C150.681 418.614 151.192 466.577 151.447 469.383C151.702 472.19 151.957 481.629 152.212 490.558L152.467 506.376L169.05 493.365L185.633 480.353V387.744C185.633 288.756 185.888 286.715 198.389 290.797C203.492 292.328 203.492 293.859 203.492 380.345C203.492 428.564 204.257 468.108 205.023 468.108C205.788 468.108 211.401 464.536 217.779 460.454L229.004 452.545V365.803V279.062L236.658 274.725C242.015 271.918 244.311 268.602 243.801 265.285C243.036 260.438 240.74 260.183 197.879 259.417C154.508 258.907 152.467 258.652 152.467 253.805C152.467 248.957 154.253 248.702 190.991 248.702C211.911 248.702 234.362 247.427 240.229 245.896C255.282 242.069 268.548 230.589 273.65 216.812C281.559 196.402 289.723 197.678 157.059 197.678C62.1539 197.933 36.8968 198.698 28.7328 201.505Z" fill="#b8935a"/>
<path d="M981.615 253.039L949.725 254.06V289.522V324.984L983.656 325.749L1017.33 326.515V318.861V311.207L991.82 311.973L966.308 312.738V303.554V294.114L982.891 295.135L999.474 295.9V288.246V280.593L982.891 281.358L966.308 282.378V274.215V266.051L991.31 267.071L1016.06 267.836V259.417C1016.06 255.08 1015.55 251.509 1014.78 251.764C1014.02 252.019 999.219 252.784 981.615 253.039Z" fill="#b8935a"/>
<path d="M302.989 255.845C302.989 256.865 304.01 258.906 305.285 260.182C309.877 265.029 333.604 320.391 332.328 322.687C331.308 324.218 335.645 325.238 342.533 325.238C349.421 325.238 353.759 324.218 352.738 322.687C351.462 320.391 374.934 266.05 380.036 259.417C383.608 255.08 386.924 258.141 401.466 278.551C412.692 294.113 413.202 295.644 412.182 310.186L411.416 325.238H422.642C431.061 325.238 433.102 324.473 431.316 321.922C430.04 320.391 429.275 313.503 429.53 306.869C430.04 297.175 432.336 291.562 442.286 277.02C449.174 267.07 456.318 258.396 458.104 257.631C461.93 256.1 493.055 318.605 490.504 322.687C489.484 324.218 493.821 325.238 500.454 325.238C508.873 325.238 511.679 324.473 510.659 321.922C510.149 320.136 516.272 304.063 524.691 286.205L539.998 253.804H528.773C519.588 253.804 518.057 254.569 518.823 258.141C519.843 262.733 503.515 301.002 500.709 301.002C497.903 301.002 481.575 262.733 482.595 258.141C483.616 254.314 481.065 253.804 458.359 253.804C437.694 253.804 433.612 254.569 434.632 257.376C435.653 260.182 424.172 281.867 421.621 281.867C419.07 281.867 407.589 260.182 408.61 257.376C409.63 254.569 405.548 253.804 384.883 253.804C361.922 253.804 359.626 254.314 360.647 258.396C361.412 260.692 357.585 271.918 352.483 283.143L343.043 303.553L333.094 282.123C327.736 270.387 323.654 259.162 324.419 257.376C325.44 254.569 322.889 253.804 314.47 253.804C308.092 253.804 302.989 254.824 302.989 255.845Z" fill="#b8935a"/>
<path d="M549.183 289.521V325.238H558.112H567.042V289.521V253.804H558.112H549.183V289.521Z" fill="#b8935a"/>
<path d="M608.116 257.121C609.391 260.947 582.348 320.391 577.756 323.197C575.97 324.218 580.307 325.238 586.94 325.238C593.829 325.238 598.676 324.218 597.656 322.942C596.89 321.667 597.656 317.585 599.186 314.013C601.993 307.89 603.523 307.38 618.321 307.38C632.097 307.38 634.904 308.145 637.2 312.737C638.985 315.544 639.496 319.626 638.73 321.667C637.71 324.473 640.261 325.238 650.466 325.238C662.712 325.238 663.222 324.983 659.395 320.646C652.507 313.248 629.036 261.458 630.566 257.631C631.587 254.569 629.291 253.804 619.341 253.804C609.902 253.804 607.095 254.569 608.116 257.121ZM625.464 287.48L629.291 297.175H618.065H606.585L612.198 285.694C618.321 273.193 619.596 273.448 625.464 287.48Z" fill="#b8935a"/>
<path d="M671.642 289.521V325.238H679.295H686.949L686.184 302.277C685.674 288.246 686.184 279.316 687.715 279.316C691.286 279.316 728.024 320.136 727.258 322.942C726.748 324.218 731.851 325.238 738.229 325.238C745.372 325.238 749.199 324.218 748.179 322.687C747.158 321.156 746.648 306.359 746.648 289.521C746.648 272.683 747.158 257.886 748.179 256.355C749.199 254.824 745.882 253.804 740.015 253.804H730.32L731.085 277.275L732.106 301.002L711.441 280.592C699.96 269.366 691.286 258.906 692.052 257.121C692.817 254.824 690.011 253.804 682.357 253.804H671.642V289.521Z" fill="#b8935a"/>
<path d="M814 257.121C814.765 258.906 808.132 274.979 799.458 292.838L783.895 325.238H794.611C803.03 325.238 805.071 324.473 804.05 321.667C803.285 319.626 803.795 315.544 805.581 312.737C807.877 308.145 810.683 307.38 824.46 307.38C839.257 307.38 840.788 307.89 843.594 314.013C845.125 317.585 845.89 321.667 845.125 322.942C844.104 324.218 848.697 325.238 855.075 325.238H866.81L850.737 292.583C841.808 274.724 834.92 258.651 835.43 256.865C836.196 254.824 833.134 253.804 824.715 253.804C815.786 253.804 812.979 254.569 814 257.121ZM833.644 293.858C833.644 295.899 830.073 297.175 823.439 297.175C817.827 297.175 813.234 296.665 813.234 295.899C813.234 295.134 815.786 289.521 818.592 283.908L823.95 273.193L828.797 282.123C831.348 286.715 833.389 292.327 833.644 293.858Z" fill="#b8935a"/>
<path d="M873.699 282.378C881.352 298.195 888.241 314.268 889.006 318.095C890.282 324.473 891.302 325.238 901.507 325.238C909.926 325.238 912.222 324.473 911.202 321.667C909.926 318.35 933.142 264.009 938.755 256.865C940.796 254.569 938.755 253.804 929.826 253.804C921.151 253.804 918.345 254.569 919.366 257.121C919.876 258.906 916.049 270.132 910.436 282.123L900.486 303.553L891.047 283.143C885.689 271.918 881.352 260.692 881.607 258.141C881.863 254.569 879.566 253.804 870.892 253.804H859.922L873.699 282.378Z" fill="#b8935a"/>
<path d="M1028.81 256.355C1029.83 257.886 1030.34 272.683 1030.34 289.521C1030.34 306.359 1029.83 321.156 1028.81 322.687C1027.79 324.218 1031.11 325.238 1036.98 325.238H1046.67L1045.91 302.277C1045.4 289.776 1045.65 279.316 1046.42 279.316C1049.22 279.316 1087.49 320.901 1086.98 322.942C1086.47 324.218 1090.55 325.238 1095.91 325.238H1105.35V289.521V253.804H1097.7H1090.04L1091.06 277.02C1091.57 290.286 1090.81 299.981 1089.53 299.471C1085.2 297.685 1050.5 259.672 1050.5 256.61C1050.5 255.08 1045.91 253.804 1038.76 253.804C1031.62 253.804 1027.79 254.824 1028.81 256.355Z" fill="#b8935a"/>
<path d="M1147.44 258.906C1147.44 261.458 1140.81 277.53 1132.65 294.624L1117.85 325.238H1128.82C1137.24 325.238 1139.28 324.473 1138.26 321.667C1137.49 319.626 1138.01 315.544 1139.79 312.737C1142.09 308.145 1144.89 307.38 1158.93 307.38C1173.47 307.38 1175.25 307.89 1177.04 312.992C1178.06 316.309 1178.82 320.391 1178.57 321.922C1178.06 324.218 1181.38 325.238 1189.03 325.238H1200L1183.67 292.838C1175 275.234 1168.11 259.162 1168.87 257.121C1169.9 254.569 1167.34 253.804 1158.93 253.804C1149.23 253.804 1147.44 254.569 1147.44 258.906ZM1167.6 295.134C1167.85 296.409 1163.26 297.175 1157.65 297.175C1152.04 297.175 1147.44 296.665 1147.44 295.899C1147.44 295.134 1150 289.521 1153.06 283.653L1158.41 272.938L1163.01 283.143C1165.56 288.756 1167.6 294.113 1167.6 295.134Z" fill="#b8935a"/>
<path d="M71.3378 285.95C65.7251 289.777 65.7251 290.542 65.7251 356.874V423.971L78.7363 432.135C85.8798 436.472 92.0027 440.044 92.7681 440.044C93.2783 440.044 93.7886 406.623 93.7886 366.058C93.7886 295.389 93.5335 291.818 88.6861 286.97C82.5632 280.847 78.9915 280.592 71.3378 285.95Z" fill="#b8935a"/>
<path d="M111.648 286.971C106.8 291.819 106.545 295.39 106.545 371.162V449.995L119.556 462.24C126.7 468.874 133.588 474.997 134.864 475.252C136.139 475.762 137.16 438.259 137.16 385.704C137.16 298.197 136.905 295.135 131.802 288.502C125.679 280.593 118.536 280.083 111.648 286.971Z" fill="#b8935a"/>
<path d="M323.399 366.058C323.399 367.333 319.062 377.538 313.449 389.019C307.582 401.01 305.03 409.429 306.816 409.429C308.347 409.429 311.153 406.622 312.684 403.051C315.235 397.438 317.276 396.673 328.502 396.673C339.982 396.673 341.258 397.438 342.788 403.051C343.554 406.622 345.85 409.429 347.891 409.429C350.442 409.429 349.677 405.602 344.574 394.632C341.003 386.723 336.665 376.263 335.135 371.671C333.349 366.568 330.543 363.507 327.991 363.507C325.44 363.507 323.399 364.527 323.399 366.058ZM332.584 380.345C337.176 391.315 336.665 392.08 326.461 391.06L318.807 390.295L322.634 380.6C324.675 375.497 326.971 371.16 327.736 371.16C328.246 371.16 330.543 375.242 332.584 380.345Z" fill="#b8935a"/>
<path d="M359.882 390.295V409.429H373.658C390.241 409.429 397.385 403.561 397.385 390.55C397.385 378.304 387.945 371.16 371.872 371.16H359.627L359.882 390.295ZM389.221 379.324C391.007 381.11 392.282 385.957 392.282 390.295C392.282 401.01 388.2 404.326 375.189 404.326H364.219V390.295V376.263H375.189C381.312 376.263 387.435 377.538 389.221 379.324Z" fill="#b8935a"/>
<path d="M402.997 373.202C417.029 407.133 423.152 415.552 426.214 404.837C426.979 402.541 430.296 393.866 434.122 385.703C439.48 374.222 439.99 371.161 436.929 371.161C434.888 371.161 433.102 372.691 433.102 374.732C433.102 376.773 430.551 383.917 427.744 390.805L422.387 403.051L416.264 390.295C412.947 383.151 410.141 376.008 410.141 374.222C410.141 372.691 408.355 371.161 406.059 371.161C403.763 371.161 402.487 372.181 402.997 373.202Z" fill="#b8935a"/>
<path d="M449.94 376.518C434.888 388.254 445.093 409.429 465.758 409.429C479.279 409.429 486.678 402.796 486.678 390.55C486.678 379.579 476.983 371.16 464.993 371.16C460.4 371.16 453.767 373.456 449.94 376.518ZM476.728 378.814C484.127 382.896 483.361 397.948 475.197 403.306C463.462 410.959 448.41 403.306 448.41 389.274C448.41 378.304 464.227 372.436 476.728 378.814Z" fill="#b8935a"/>
<path d="M500.709 377.538C487.443 390.55 496.627 409.429 516.272 409.429C529.028 409.429 533.875 406.112 533.875 397.948C534.13 392.336 533.11 391.57 525.711 391.57C521.119 391.57 517.292 392.591 517.292 393.611C517.292 394.887 519.843 395.652 523.16 395.652C531.069 395.397 530.303 402.03 521.884 404.837C511.424 408.408 500.964 402.54 499.944 392.591C499.434 387.743 500.709 382.896 503.26 380.345C508.108 375.497 522.65 374.987 526.987 379.324C528.518 380.855 530.814 381.365 531.834 380.345C535.151 377.028 524.436 371.16 515.506 371.16C509.638 371.16 504.791 373.201 500.709 377.538Z" fill="#b8935a"/>
<path d="M547.652 390.295C542.295 401.775 539.999 409.429 541.785 409.429C543.315 409.429 545.356 407.133 546.122 404.326C547.142 400.244 549.693 399.224 558.112 399.224C566.531 399.224 569.083 400.244 570.103 404.326C570.868 407.133 572.909 409.429 574.695 409.429C578.777 409.429 563.215 371.415 559.388 371.16C557.857 371.16 552.5 379.834 547.652 390.295ZM562.449 386.468C565.256 393.866 565.001 394.121 558.112 394.121C551.224 394.121 550.969 393.866 553.775 386.468C555.306 382.131 557.347 378.814 558.112 378.814C558.878 378.814 560.919 382.131 562.449 386.468Z" fill="#b8935a"/>
<path d="M584.9 390.039V409.429H598.421C614.494 409.429 621.893 403.561 621.893 390.805C621.893 377.283 617.045 372.946 599.952 371.671L584.9 370.65V390.039ZM613.729 379.324C615.515 381.11 616.79 385.957 616.79 390.295C616.79 400.755 612.708 404.326 600.973 404.326H591.278V390.295V376.263H600.973C606.33 376.263 611.943 377.538 613.729 379.324Z" fill="#b8935a"/>
<path d="M642.303 374.987C642.303 377.283 638.732 385.702 634.65 394.121C629.037 405.347 628.016 409.429 630.568 409.429C632.353 409.429 634.65 407.133 635.415 404.326C636.435 400.244 638.987 399.224 646.895 399.224C655.059 399.224 657.611 400.244 658.886 404.326C659.652 407.133 661.948 409.429 663.989 409.429C666.285 409.429 665.264 405.092 659.907 394.121C655.825 385.702 652.508 377.028 652.508 374.987C652.508 372.946 650.212 371.16 647.406 371.16C644.599 371.16 642.303 372.946 642.303 374.987ZM651.233 386.468L655.315 394.121H647.406C643.324 394.121 639.752 393.611 639.752 392.846C639.752 391.06 645.62 378.814 646.385 378.814C646.895 378.814 648.936 382.131 651.233 386.468Z" fill="#b8935a"/>
</svg>
